<svg width="240" height="43" viewBox="0 0 240 43" fill="none" xmlns="http://www.w3.org/2000/svg">
<path d="M46.8751 11.9616C37.2356 11.0694 33.2377 5.99301 33.0317 5.98861C31.5895 5.96664 27.8898 5.95345 27.5391 5.93587C27.7188 5.64579 30.6251 2.11212 31.9665 0.525489C32.5539 -0.168939 32.6591 -0.155753 33.3868 0.450772C37.8054 4.14266 42.2329 7.83016 46.6559 11.5177C46.7524 11.5968 46.84 11.6803 46.9365 11.7638C46.9189 11.8297 46.897 11.8956 46.8795 11.9616H46.8751Z" fill="#0092D6"/>
<path d="M33.1586 11.408C36.214 14.278 40.0715 15.1262 43.8633 16.1283C44.385 16.2646 44.9329 16.3964 45.4634 16.5327C45.3362 17.148 44.9987 17.3721 44.4025 17.3677C40.9921 17.3458 37.5816 17.3589 34.1712 17.3545C33.1893 17.3545 33.1279 17.2886 33.1235 16.2558C33.1191 14.7043 33.1235 13.1572 33.1235 11.6057C33.1235 11.5662 33.1367 11.5266 33.1586 11.4036V11.408Z" fill="#0092D6"/>
<path d="M46.4282 13.3594C42.7899 12.8627 36.5871 11.364 33.124 7.70728C37.0956 10.8366 41.9219 12.1156 46.6343 12.7353C46.5641 12.9682 46.4282 13.3594 46.4282 13.3594Z" fill="#0092D6"/>
<path d="M33.334 9.38623C37.3581 12.0057 41.5883 13.2715 46.2393 14.0187C46.1604 14.2824 46.0946 14.5417 46.0946 14.5417C44.2491 14.234 36.5691 12.621 33.334 9.38623Z" fill="#0092D6"/>
<path d="M33.4746 10.7268C37.2314 13.3683 41.3256 14.1682 45.8451 15.2977C45.7662 15.5658 45.6566 15.8647 45.6566 15.8647C42.0139 15.0384 35.9031 13.2936 33.4746 10.7268V10.7268Z" fill="#0092D6"/>
<path d="M0.996371 31.6695V29.6214H7.78218C8.73342 29.6214 9.20685 29.1511 9.20685 28.2106C9.20685 27.27 8.73342 26.7997 7.78218 26.7997H4.14818C1.85994 26.7997 0.71582 25.6526 0.71582 23.3584C0.71582 21.0641 1.85994 19.9521 4.14818 19.9521H11.2496V22.0003H4.62161C3.69228 22.0003 3.23201 22.4574 3.23201 23.3759C3.23201 24.2945 3.6879 24.7516 4.60407 24.7516H8.22054C9.36904 24.7516 10.2414 25.0417 10.8332 25.6174C11.4249 26.1932 11.723 27.059 11.723 28.2106C11.723 29.3621 11.4249 30.2279 10.8332 30.8037C10.2414 31.3794 9.37343 31.6695 8.23807 31.6695H0.996371V31.6695Z" fill="#0092D6"/>
<path d="M18.3159 31.6695C16.3652 31.6695 14.9273 31.1948 14.0024 30.2411C13.0731 29.2874 12.6128 27.8106 12.6128 25.8108C12.6128 23.8111 13.0775 22.3475 14.0024 21.3893C14.9273 20.4312 16.3695 19.9521 18.3159 19.9521H21.7131V22.0003H18.7893C18.2019 22.0003 17.6934 22.0486 17.2682 22.1497C16.8386 22.2508 16.4835 22.409 16.203 22.6244C15.9224 22.8441 15.6988 23.1254 15.5323 23.4726C15.3657 23.8198 15.2561 24.2462 15.1991 24.7516H21.5553V26.7997H15.1991C15.2912 27.8106 15.6199 28.5358 16.1767 28.9709C16.7334 29.406 17.6057 29.6258 18.7893 29.6258H21.8885V31.6739H18.3159V31.6695Z" fill="#0092D6"/>
<path d="M28.5605 31.6695C26.6098 31.6695 25.172 31.1948 24.247 30.2499C23.3177 29.3005 22.8574 27.8238 22.8574 25.8108C22.8574 23.7979 23.3221 22.3475 24.2558 21.3893C25.1895 20.4312 26.6185 19.9521 28.5429 19.9521H32.063V22.0003H29.0514C28.372 22.0003 27.7934 22.0662 27.3243 22.2024C26.8553 22.3387 26.4783 22.5584 26.189 22.8661C25.8996 23.1738 25.6936 23.5649 25.5621 24.0484C25.435 24.5319 25.3692 25.1208 25.3692 25.8152C25.3692 26.5097 25.435 27.0986 25.5621 27.5821C25.6892 28.0655 25.8996 28.4611 26.189 28.7643C26.4783 29.072 26.8553 29.2918 27.3243 29.428C27.7934 29.5643 28.3676 29.6302 29.0514 29.6302H32.1331V31.6783H28.5605V31.6695Z" fill="#0092D6"/>
<path d="M40.9219 31.6693V26.7599H35.4994V31.6693H33.106V19.9475H35.4994V24.7338H40.9044V19.9475H43.3154V31.6693H40.9219Z" fill="#0092D6"/>
<path d="M49.9916 31.6695C48.0409 31.6695 46.6031 31.1948 45.6782 30.2411C44.7489 29.2874 44.2886 27.8106 44.2886 25.8108C44.2886 23.8111 44.7532 22.3475 45.6782 21.3893C46.6031 20.4312 48.0453 19.9521 49.9916 19.9521H53.3889V22.0003H50.4651C49.8777 22.0003 49.3692 22.0486 48.944 22.1497C48.5144 22.2508 48.1593 22.409 47.8787 22.6244C47.5982 22.8441 47.3746 23.1254 47.208 23.4726C47.0415 23.8198 46.9319 24.2462 46.8749 24.7516H53.2311V26.7997H46.8749C46.9669 27.8106 47.2957 28.5358 47.8524 28.9709C48.4092 29.406 49.2815 29.6258 50.4651 29.6258H53.5643V31.6739H49.9916V31.6695Z" fill="#0092D6"/>
<path d="M60.2055 31.6695C58.2548 31.6695 56.817 31.1948 55.892 30.2411C54.9627 29.2874 54.5024 27.8106 54.5024 25.8108C54.5024 23.8111 54.9671 22.3475 55.892 21.3893C56.817 20.4312 58.2592 19.9521 60.2055 19.9521H63.6028V22.0003H60.6789C60.0915 22.0003 59.583 22.0486 59.1578 22.1497C58.7282 22.2508 58.3732 22.409 58.0926 22.6244C57.8121 22.8441 57.5885 23.1254 57.4219 23.4726C57.2553 23.8198 57.1458 24.2462 57.0888 24.7516H63.445V26.7997H57.0888C57.1808 27.8106 57.5096 28.5358 58.0663 28.9709C58.623 29.406 59.4954 29.6258 60.6789 29.6258H63.7781V31.6739H60.2055V31.6695Z" fill="#0092D6"/>
<path d="M64.9614 31.6693V19.9475H71.1598C72.453 19.9475 73.4349 20.2771 74.1188 20.9364C74.7982 21.5957 75.1401 22.5714 75.1401 23.8679C75.1401 25.1645 74.7982 26.1402 74.1188 26.7995C73.4393 27.4588 72.453 27.7884 71.1598 27.7884H67.8502V31.6737H64.9614V31.6693ZM70.6294 25.3491C71.6157 25.3491 72.1067 24.8568 72.1067 23.8679C72.1067 22.879 71.6157 22.3868 70.6294 22.3868H67.8458V25.3535H70.6294V25.3491Z" fill="#0092D6"/>
<path d="M5.10348 40.4419V41.2154H0.588379V34.9788H4.98074V35.7523H1.47825V37.6686H4.59937V38.4245H1.47825V40.4375H5.10348V40.4419Z" fill="#0092D6"/>
<path d="M10.3071 36.9698C10.6578 37.317 10.8375 37.8268 10.8375 38.4993V41.2155H9.98268V38.596C9.98268 38.1389 9.87309 37.7917 9.65391 37.5631C9.43473 37.3302 9.11911 37.2159 8.71144 37.2159C8.25116 37.2159 7.88294 37.3522 7.61992 37.6203C7.35252 37.8928 7.22101 38.2795 7.22101 38.785V41.2199H6.36621V36.4951H7.18594V37.2071C7.3569 36.9654 7.58923 36.7764 7.88294 36.6446C8.17664 36.5127 8.50979 36.4468 8.8824 36.4468C9.48295 36.4468 9.95638 36.6226 10.3071 36.9698V36.9698Z" fill="#0092D6"/>
<path d="M16.606 39.1366H12.7835C12.8361 39.5541 13.0202 39.8882 13.3315 40.1387C13.6427 40.3892 14.0285 40.5167 14.4931 40.5167C15.0542 40.5167 15.5101 40.3277 15.852 39.9453L16.3211 40.4991C16.1063 40.7496 15.8433 40.9386 15.5277 41.0704C15.212 41.2023 14.857 41.2682 14.4668 41.2682C13.9671 41.2682 13.5287 41.1671 13.143 40.9606C12.7572 40.754 12.4591 40.4683 12.2487 40.0991C12.0383 39.7299 11.9331 39.3168 11.9331 38.8509C11.9331 38.385 12.0339 37.9807 12.24 37.6115C12.446 37.2423 12.7265 36.9566 13.086 36.75C13.4454 36.5435 13.8487 36.4424 14.3002 36.4424C14.7518 36.4424 15.1507 36.5435 15.5057 36.75C15.8564 36.9566 16.1326 37.2423 16.3342 37.6115C16.5315 37.9807 16.6323 38.4026 16.6323 38.8773C16.6323 38.9432 16.6279 39.0267 16.6148 39.1366H16.606ZM13.2701 37.5412C12.9939 37.7917 12.8317 38.1169 12.7835 38.5213H15.8038C15.7556 38.1213 15.5934 37.7961 15.3172 37.5456C15.0411 37.295 14.6992 37.1676 14.2915 37.1676C13.8838 37.1676 13.5419 37.2906 13.2657 37.5412H13.2701Z" fill="#0092D6"/>
<path d="M19.2278 36.6621C19.5171 36.5215 19.8721 36.4468 20.2842 36.4468V37.2775C20.236 37.2731 20.1702 37.2687 20.0869 37.2687C19.6267 37.2687 19.2628 37.4049 18.9998 37.6818C18.7368 37.9587 18.6053 38.3499 18.6053 38.8641V41.2155H17.7505V36.4907H18.5702V37.2818C18.7193 37.0094 18.9384 36.8028 19.2278 36.6577V36.6621Z" fill="#0092D6"/>
<path d="M25.8509 36.4907V40.5738C25.8509 41.4001 25.6449 42.011 25.2372 42.4065C24.8296 42.8021 24.2159 42.9999 23.4049 42.9999C22.9622 42.9999 22.5369 42.9384 22.1337 42.8153C21.7304 42.6922 21.406 42.5208 21.1561 42.2923L21.5638 41.633C21.783 41.822 22.0548 41.9714 22.3791 42.0813C22.7035 42.1912 23.0367 42.2483 23.3786 42.2483C23.9309 42.2483 24.3386 42.1165 24.6016 41.8572C24.8646 41.5935 24.9961 41.1979 24.9961 40.6617V40.2881C24.7945 40.5298 24.549 40.7144 24.2553 40.8375C23.9616 40.9606 23.6416 41.0221 23.2997 41.0221C22.8482 41.0221 22.4405 40.9254 22.0767 40.732C21.7128 40.5386 21.4279 40.2705 21.2175 39.9189C21.0115 39.5717 20.9062 39.1761 20.9062 38.7278C20.9062 38.2795 21.0115 37.884 21.2175 37.5368C21.4235 37.1896 21.7128 36.9215 22.0767 36.7281C22.4405 36.5391 22.8482 36.4424 23.2997 36.4424C23.6548 36.4424 23.9835 36.5083 24.2904 36.6402C24.5972 36.772 24.8471 36.9654 25.04 37.2203V36.4907H25.8509V36.4907ZM24.229 40.0727C24.4745 39.9409 24.6674 39.7607 24.8077 39.5234C24.9479 39.2904 25.0181 39.0223 25.0181 38.7278C25.0181 38.2708 24.869 37.9016 24.5666 37.6203C24.2641 37.339 23.8783 37.1983 23.4005 37.1983C22.9227 37.1983 22.5282 37.339 22.2257 37.6203C21.9232 37.9016 21.7742 38.2708 21.7742 38.7278C21.7742 39.0267 21.8443 39.2904 21.9846 39.5234C22.1249 39.7563 22.3178 39.9409 22.5633 40.0727C22.8087 40.2046 23.0893 40.2705 23.4049 40.2705C23.7205 40.2705 23.9879 40.2046 24.2378 40.0727H24.229Z" fill="#0092D6"/>
<path d="M28.3935 34.6448H29.4762L27.9814 35.8051H27.1836L28.3935 34.6448V34.6448ZM27.4247 36.4907H28.2795V41.2155H27.4247V36.4907Z" fill="#0092D6"/>
<path d="M33.0619 36.9302C33.4082 37.2511 33.5835 37.7301 33.5835 38.363V41.2155H32.7726V40.5914C32.6323 40.8111 32.4263 40.9781 32.1632 41.0968C31.9002 41.2111 31.589 41.2726 31.2252 41.2726C30.6991 41.2726 30.2739 41.1451 29.9583 40.8902C29.6427 40.6353 29.4849 40.3013 29.4849 39.8838C29.4849 39.4662 29.6339 39.1322 29.9364 38.8817C30.2388 38.6311 30.7167 38.5037 31.3786 38.5037H32.7287V38.3323C32.7287 37.9631 32.6235 37.6818 32.4087 37.484C32.1939 37.2862 31.8827 37.1896 31.4663 37.1896C31.1857 37.1896 30.9139 37.2335 30.6465 37.3258C30.3791 37.4181 30.1556 37.5412 29.9714 37.695L29.6164 37.0533C29.8575 36.8555 30.1512 36.7061 30.4887 36.605C30.8262 36.4995 31.1857 36.4512 31.5627 36.4512C32.2158 36.4512 32.7156 36.6094 33.0619 36.9302V36.9302ZM32.2115 40.3936C32.4482 40.2485 32.6191 40.042 32.7287 39.7739V39.1146H31.4136C30.6904 39.1146 30.3309 39.3563 30.3309 39.8442C30.3309 40.0815 30.423 40.2705 30.6071 40.4068C30.7912 40.543 31.0454 40.6133 31.3698 40.6133C31.6942 40.6133 31.9791 40.5386 32.2158 40.3936H32.2115Z" fill="#0092D6"/>
<path d="M41.895 34.6008V41.2155H41.0753V40.4683C40.8868 40.732 40.6457 40.9298 40.3564 41.066C40.0671 41.2023 39.7471 41.2726 39.3964 41.2726C38.9405 41.2726 38.5328 41.1715 38.169 40.9693C37.8095 40.7672 37.5246 40.4815 37.3186 40.1167C37.1125 39.7519 37.0117 39.33 37.0117 38.8553C37.0117 38.3806 37.1125 37.9631 37.3186 37.5983C37.5246 37.2379 37.8052 36.9522 38.169 36.75C38.5284 36.5479 38.9405 36.4468 39.3964 36.4468C39.7339 36.4468 40.0452 36.5127 40.3301 36.6402C40.615 36.7676 40.8518 36.9566 41.0402 37.2071V34.6052H41.895V34.6008ZM40.2775 40.3101C40.5186 40.1694 40.7115 39.976 40.8474 39.7211C40.9833 39.4706 41.0534 39.1805 41.0534 38.8509C41.0534 38.5213 40.9833 38.2356 40.8474 37.9807C40.7115 37.7301 40.523 37.5324 40.2775 37.3961C40.0364 37.2599 39.7646 37.1895 39.4665 37.1895C39.1685 37.1895 38.8923 37.2599 38.6512 37.3961C38.4101 37.5324 38.2216 37.7258 38.0813 37.9807C37.941 38.2312 37.8709 38.5213 37.8709 38.8509C37.8709 39.1805 37.941 39.4662 38.0813 39.7211C38.2216 39.9717 38.4101 40.1694 38.6512 40.3101C38.8923 40.4507 39.1641 40.521 39.4665 40.521C39.769 40.521 40.032 40.4507 40.2775 40.3101Z" fill="#0092D6"/>
<path d="M47.6988 39.1366H43.8763C43.9289 39.5541 44.113 39.8882 44.4242 40.1387C44.7355 40.3892 45.1212 40.5167 45.5859 40.5167C46.147 40.5167 46.6029 40.3277 46.9448 39.9453L47.4139 40.4991C47.1991 40.7496 46.9361 40.9386 46.6204 41.0704C46.3048 41.2023 45.9497 41.2682 45.5596 41.2682C45.0599 41.2682 44.6215 41.1671 44.2358 40.9606C43.85 40.754 43.5519 40.4683 43.3415 40.0991C43.1311 39.7299 43.0259 39.3168 43.0259 38.8509C43.0259 38.385 43.1267 37.9807 43.3327 37.6115C43.5388 37.2423 43.8193 36.9566 44.1788 36.75C44.5382 36.5435 44.9415 36.4424 45.393 36.4424C45.8445 36.4424 46.2434 36.5435 46.5985 36.75C46.9492 36.9566 47.2254 37.2423 47.427 37.6115C47.6243 37.9807 47.7251 38.4026 47.7251 38.8773C47.7251 38.9432 47.7207 39.0267 47.7076 39.1366H47.6988ZM44.3629 37.5412C44.0867 37.7917 43.9245 38.1169 43.8763 38.5213H46.8966C46.8484 38.1213 46.6862 37.7961 46.41 37.5456C46.1339 37.295 45.7919 37.1676 45.3843 37.1676C44.9766 37.1676 44.6347 37.2906 44.3585 37.5412H44.3629Z" fill="#0092D6"/>
<path d="M53.8316 40.9387C53.7088 41.0442 53.551 41.1277 53.3713 41.1848C53.1872 41.242 52.9987 41.2683 52.8014 41.2683C52.328 41.2683 51.9598 41.1409 51.7011 40.886C51.4381 40.631 51.311 40.2663 51.311 39.7916V37.1985H50.5132V36.4953H51.311V35.4624H52.1658V36.4953H53.5159V37.1985H52.1658V39.7564C52.1658 40.0113 52.2316 40.2091 52.3587 40.3454C52.4858 40.4816 52.6699 40.5519 52.9066 40.5519C53.1653 40.5519 53.3888 40.4772 53.5729 40.3278L53.8403 40.9431L53.8316 40.9387Z" fill="#0092D6"/>
<path d="M55.5673 40.9562C55.1947 40.7496 54.901 40.4595 54.6906 40.0947C54.4802 39.7299 54.375 39.3168 54.375 38.8509C54.375 38.385 54.4802 37.9719 54.6906 37.6071C54.901 37.2423 55.1947 36.9566 55.5673 36.75C55.9399 36.5435 56.3608 36.4424 56.8298 36.4424C57.2989 36.4424 57.7153 36.5435 58.0879 36.75C58.4561 36.9566 58.7498 37.2423 58.9602 37.6071C59.1707 37.9719 59.2759 38.385 59.2759 38.8509C59.2759 39.3168 59.1707 39.7299 58.9602 40.0947C58.7498 40.4595 58.4605 40.7452 58.0879 40.9562C57.7153 41.1627 57.2989 41.2682 56.8298 41.2682C56.3608 41.2682 55.9399 41.1627 55.5673 40.9562V40.9562ZM57.6408 40.3101C57.8819 40.1694 58.0704 39.9761 58.2063 39.7211C58.3422 39.4706 58.4123 39.1805 58.4123 38.8509C58.4123 38.5213 58.3422 38.2356 58.2063 37.9807C58.0704 37.7302 57.8819 37.5324 57.6408 37.3961C57.3997 37.2599 57.1279 37.1896 56.8254 37.1896C56.523 37.1896 56.2512 37.2599 56.0101 37.3961C55.769 37.5324 55.5805 37.7258 55.4402 37.9807C55.2999 38.2312 55.2298 38.5213 55.2298 38.8509C55.2298 39.1805 55.2999 39.4662 55.4402 39.7211C55.5805 39.9717 55.769 40.1694 56.0101 40.3101C56.2512 40.4507 56.523 40.521 56.8254 40.521C57.1279 40.521 57.3997 40.4507 57.6408 40.3101Z" fill="#0092D6"/>
<path d="M64.8477 34.6008V41.2155H64.028V40.4683C63.8395 40.732 63.5984 40.9298 63.309 41.066C63.0197 41.2023 62.6997 41.2726 62.349 41.2726C61.8931 41.2726 61.4855 41.1715 61.1216 40.9693C60.7622 40.7672 60.4772 40.4815 60.2712 40.1167C60.0652 39.7519 59.9644 39.33 59.9644 38.8553C59.9644 38.3806 60.0652 37.9631 60.2712 37.5983C60.4772 37.2379 60.7578 36.9522 61.1216 36.75C61.4811 36.5479 61.8931 36.4468 62.349 36.4468C62.6866 36.4468 62.9978 36.5127 63.2827 36.6402C63.5677 36.7676 63.8044 36.9566 63.9929 37.2071V34.6052H64.8477V34.6008ZM63.2301 40.3101C63.4712 40.1694 63.6641 39.976 63.8 39.7211C63.9359 39.4706 64.006 39.1805 64.006 38.8509C64.006 38.5213 63.9359 38.2356 63.8 37.9807C63.6641 37.7301 63.4756 37.5324 63.2301 37.3961C62.989 37.2599 62.7173 37.1895 62.4192 37.1895C62.1211 37.1895 61.8449 37.2599 61.6038 37.3961C61.3627 37.5324 61.1742 37.7258 61.034 37.9807C60.8937 38.2312 60.8235 38.5213 60.8235 38.8509C60.8235 39.1805 60.8937 39.4662 61.034 39.7211C61.1742 39.9717 61.3627 40.1694 61.6038 40.3101C61.8449 40.4507 62.1167 40.521 62.4192 40.521C62.7216 40.521 62.9847 40.4507 63.2301 40.3101Z" fill="#0092D6"/>
<path d="M67.1665 40.9562C66.7939 40.7496 66.5002 40.4595 66.2897 40.0947C66.0793 39.7299 65.9741 39.3168 65.9741 38.8509C65.9741 38.385 66.0793 37.9719 66.2897 37.6071C66.5002 37.2423 66.7939 36.9566 67.1665 36.75C67.5391 36.5435 67.9599 36.4424 68.4289 36.4424C68.898 36.4424 69.3144 36.5435 69.687 36.75C70.0553 36.9566 70.3489 37.2423 70.5594 37.6071C70.7698 37.9719 70.875 38.385 70.875 38.8509C70.875 39.3168 70.7698 39.7299 70.5594 40.0947C70.3489 40.4595 70.0596 40.7452 69.687 40.9562C69.3144 41.1627 68.898 41.2682 68.4289 41.2682C67.9599 41.2682 67.5391 41.1627 67.1665 40.9562ZM69.2399 40.3101C69.481 40.1694 69.6695 39.9761 69.8054 39.7211C69.9413 39.4706 70.0114 39.1805 70.0114 38.8509C70.0114 38.5213 69.9413 38.2356 69.8054 37.9807C69.6695 37.7302 69.481 37.5324 69.2399 37.3961C68.9988 37.2599 68.727 37.1896 68.4246 37.1896C68.1221 37.1896 67.8503 37.2599 67.6092 37.3961C67.3681 37.5324 67.1796 37.7258 67.0393 37.9807C66.8991 38.2312 66.8289 38.5213 66.8289 38.8509C66.8289 39.1805 66.8991 39.4662 67.0393 39.7211C67.1796 39.9717 67.3681 40.1694 67.6092 40.3101C67.8503 40.4507 68.1221 40.521 68.4246 40.521C68.727 40.521 68.9988 40.4507 69.2399 40.3101Z" fill="#0092D6"/>
<path d="M72.2425 41.1144C71.8875 41.0089 71.6069 40.877 71.4053 40.7188L71.7603 40.042C71.9664 40.1914 72.2206 40.3101 72.5143 40.398C72.8124 40.4859 73.1105 40.5298 73.413 40.5298C74.1582 40.5298 74.5308 40.3145 74.5308 39.8881C74.5308 39.7475 74.4826 39.6332 74.3817 39.5497C74.2809 39.4662 74.1538 39.4047 74.0047 39.3651C73.8557 39.3256 73.6409 39.2816 73.3604 39.2377C72.979 39.1805 72.6721 39.1102 72.431 39.0311C72.1899 38.952 71.9839 38.8245 71.8129 38.6399C71.642 38.4553 71.5543 38.196 71.5543 37.8664C71.5543 37.4401 71.734 37.0973 72.0891 36.8379C72.4442 36.5786 72.922 36.4512 73.5182 36.4512C73.8338 36.4512 74.145 36.4907 74.4606 36.5654C74.7763 36.6446 75.0305 36.7456 75.2322 36.8775L74.8683 37.5543C74.4826 37.3038 74.031 37.1808 73.5094 37.1808C73.1499 37.1808 72.8738 37.2423 72.6809 37.361C72.4924 37.4796 72.396 37.6379 72.396 37.8312C72.396 37.9851 72.4486 38.1081 72.5538 38.196C72.659 38.2839 72.7905 38.3499 72.9483 38.3938C73.1061 38.4334 73.3253 38.4817 73.6102 38.5345C73.9872 38.6004 74.2941 38.6707 74.5308 38.7454C74.7631 38.8201 74.9648 38.9476 75.1313 39.1234C75.2979 39.3036 75.3812 39.5497 75.3812 39.8706C75.3812 40.2969 75.1971 40.6397 74.8332 40.8902C74.4694 41.1408 73.9741 41.2682 73.3428 41.2682C72.9571 41.2682 72.5888 41.2155 72.2338 41.1144H72.2425Z" fill="#0092D6"/>
<path d="M148.501 29.2776H149.023V33.0033H148.533V32.2499C147.901 32.7966 147.067 33.0538 146.187 33.0538C144.258 33.0538 142.43 31.7032 142.43 29.2546C142.43 27.0541 144.088 25.4324 146.361 25.4324C147.442 25.4324 148.395 25.7769 149.06 26.4614L148.716 26.8244C148.061 26.1812 147.282 25.9331 146.37 25.9331C144.423 25.9331 142.975 27.3481 142.975 29.25C142.975 31.354 144.56 32.5577 146.219 32.5577C147.035 32.5577 147.868 32.2774 148.501 31.6572V29.273V29.2776Z" fill="#5B5B5F"/>
<path d="M150.645 30.2009C150.645 28.5378 151.832 27.3572 153.44 27.3572C155.048 27.3572 156.235 28.5378 156.235 30.2009C156.235 31.8639 155.048 33.0445 153.44 33.0445C151.832 33.0445 150.645 31.8639 150.645 30.2009ZM155.69 30.2009C155.69 28.7951 154.728 27.8395 153.44 27.8395C152.152 27.8395 151.19 28.7951 151.19 30.2009C151.19 31.6066 152.152 32.5622 153.44 32.5622C154.728 32.5622 155.69 31.6066 155.69 30.2009Z" fill="#5B5B5F"/>
<path d="M163.461 30.201C163.461 31.8778 162.274 33.0446 160.698 33.0446C159.69 33.0446 158.847 32.5393 158.407 31.6802V32.9987H157.894V25.0327H158.43V28.6712C158.879 27.8351 159.713 27.3527 160.698 27.3527C162.27 27.3527 163.461 28.5104 163.461 30.1964V30.201ZM162.925 30.201C162.925 28.7952 161.949 27.8396 160.666 27.8396C159.383 27.8396 158.416 28.7952 158.416 30.201C158.416 31.6067 159.379 32.5623 160.666 32.5623C161.954 32.5623 162.925 31.6067 162.925 30.201Z" fill="#5B5B5F"/>
<path d="M164.946 25.6068C164.946 25.3725 165.138 25.1658 165.386 25.1658C165.633 25.1658 165.826 25.3587 165.826 25.593C165.826 25.8273 165.633 26.034 165.386 26.034C165.138 26.034 164.946 25.8411 164.946 25.6068ZM165.115 27.3985H165.651V33.0031H165.115V27.3985Z" fill="#5B5B5F"/>
<path d="M171.993 31.7766L172.304 32.1303C171.814 32.7322 171.053 33.0445 170.196 33.0445C168.506 33.0445 167.305 31.8639 167.305 30.2009C167.305 28.5378 168.441 27.3572 170.022 27.3572C171.511 27.3572 172.57 28.4735 172.643 29.9666L167.924 30.89C168.189 31.919 169.06 32.5668 170.206 32.5668C170.925 32.5668 171.566 32.3095 171.993 31.7812V31.7766ZM167.828 30.1549C167.828 30.2606 167.837 30.38 167.85 30.4857L172.112 29.6496C171.96 28.6527 171.168 27.8258 170.022 27.8258C168.739 27.8258 167.828 28.7905 167.828 30.1549V30.1549Z" fill="#5B5B5F"/>
<path d="M176.95 27.3571V27.8808C176.909 27.8808 176.863 27.8717 176.822 27.8717C175.58 27.8717 174.843 28.6986 174.843 30.0814V33.0032H174.307V27.3985H174.82V28.6205C175.163 27.8028 175.901 27.3525 176.95 27.3525V27.3571Z" fill="#5B5B5F"/>
<path d="M183.425 29.7277V33.0032H182.889V29.7736C182.889 28.5057 182.215 27.8395 181.079 27.8395C179.764 27.8395 178.957 28.6894 178.957 30.0171V33.0032H178.421V27.3985H178.935V28.6113C179.31 27.8258 180.089 27.3572 181.152 27.3572C182.513 27.3572 183.42 28.1611 183.42 29.7277H183.425Z" fill="#5B5B5F"/>
<path d="M185.033 30.2009C185.033 28.5378 186.219 27.3572 187.828 27.3572C189.436 27.3572 190.623 28.5378 190.623 30.2009C190.623 31.8639 189.436 33.0445 187.828 33.0445C186.219 33.0445 185.033 31.8639 185.033 30.2009ZM190.077 30.2009C190.077 28.7951 189.115 27.8395 187.828 27.8395C186.54 27.8395 185.578 28.7951 185.578 30.2009C185.578 31.6066 186.54 32.5622 187.828 32.5622C189.115 32.5622 190.077 31.6066 190.077 30.2009Z" fill="#5B5B5F"/>
<path d="M199.998 25.0374V33.0033H199.475V31.6849C199.035 32.5531 198.192 33.0493 197.184 33.0493C195.613 33.0493 194.421 31.8778 194.421 30.2056C194.421 28.5334 195.608 27.3619 197.184 27.3619C198.179 27.3619 199.017 27.8535 199.466 28.7034V25.0419H200.002L199.998 25.0374ZM199.462 30.201C199.462 28.7952 198.499 27.8397 197.212 27.8397C195.924 27.8397 194.962 28.7952 194.962 30.201C194.962 31.6068 195.924 32.5623 197.212 32.5623C198.499 32.5623 199.462 31.6068 199.462 30.201Z" fill="#5B5B5F"/>
<path d="M206.339 31.7766L206.651 32.1303C206.161 32.7322 205.4 33.0445 204.543 33.0445C202.852 33.0445 201.652 31.8639 201.652 30.2009C201.652 28.5378 202.788 27.3572 204.369 27.3572C205.858 27.3572 206.917 28.4735 206.99 29.9666L202.27 30.89C202.536 31.919 203.407 32.5668 204.552 32.5668C205.272 32.5668 205.913 32.3095 206.339 31.7812V31.7766ZM202.174 30.1549C202.174 30.2606 202.183 30.38 202.197 30.4857L206.458 29.6496C206.307 28.6527 205.514 27.8258 204.369 27.8258C203.086 27.8258 202.174 28.7905 202.174 30.1549V30.1549Z" fill="#5B5B5F"/>
<path d="M214.005 32.6494C213.725 32.9159 213.276 33.0445 212.859 33.0445C211.874 33.0445 211.338 32.4657 211.338 31.5193V26.1719H211.874V27.3939H213.652V27.8533H211.874V31.4596C211.874 32.1808 212.227 32.5759 212.914 32.5759C213.244 32.5759 213.556 32.4702 213.78 32.2635L214.005 32.6402V32.6494Z" fill="#5B5B5F"/>
<path d="M214.678 30.2009C214.678 28.5378 215.865 27.3572 217.473 27.3572C219.081 27.3572 220.268 28.5378 220.268 30.2009C220.268 31.8639 219.081 33.0445 217.473 33.0445C215.865 33.0445 214.678 31.8639 214.678 30.2009ZM219.723 30.2009C219.723 28.7951 218.761 27.8395 217.473 27.8395C216.186 27.8395 215.223 28.7951 215.223 30.2009C215.223 31.6066 216.186 32.5622 217.473 32.5622C218.761 32.5622 219.723 31.6066 219.723 30.2009Z" fill="#5B5B5F"/>
<path d="M226.894 25.0374V33.0033H226.371V31.6849C225.931 32.5531 225.088 33.0493 224.08 33.0493C222.509 33.0493 221.317 31.8778 221.317 30.2056C221.317 28.5334 222.504 27.3619 224.08 27.3619C225.075 27.3619 225.913 27.8535 226.362 28.7034V25.0419H226.898L226.894 25.0374ZM226.358 30.201C226.358 28.7952 225.395 27.8397 224.108 27.8397C222.82 27.8397 221.858 28.7952 221.858 30.201C221.858 31.6068 222.82 32.5623 224.108 32.5623C225.395 32.5623 226.358 31.6068 226.358 30.201Z" fill="#5B5B5F"/>
<path d="M228.543 30.2009C228.543 28.5378 229.73 27.3572 231.338 27.3572C232.947 27.3572 234.133 28.5378 234.133 30.2009C234.133 31.8639 232.947 33.0445 231.338 33.0445C229.73 33.0445 228.543 31.8639 228.543 30.2009ZM233.588 30.2009C233.588 28.7951 232.626 27.8395 231.338 27.8395C230.051 27.8395 229.089 28.7951 229.089 30.2009C229.089 31.6066 230.051 32.5622 231.338 32.5622C232.626 32.5622 233.588 31.6066 233.588 30.2009Z" fill="#5B5B5F"/>
<path d="M234.967 32.3279L235.214 31.9007C235.64 32.2636 236.401 32.576 237.226 32.576C238.403 32.576 238.875 32.158 238.875 31.524C238.875 29.8931 235.173 31.0967 235.173 28.8962C235.173 28.0463 235.879 27.3618 237.294 27.3618C238 27.3618 238.77 27.5777 239.21 27.9085L238.962 28.3357C238.49 27.9912 237.881 27.8304 237.281 27.8304C236.19 27.8304 235.709 28.2806 235.709 28.8824C235.709 30.5684 239.411 29.374 239.411 31.5102C239.411 32.4244 238.628 33.0446 237.207 33.0446C236.286 33.0446 235.407 32.7322 234.971 32.3233L234.967 32.3279Z" fill="#5B5B5F"/>
<path d="M141.192 15.9458C141.192 12.436 143.873 9.94604 147.52 9.94604C149.642 9.94604 151.351 10.7224 152.469 12.1236L150.398 14.0025C149.674 13.1297 148.785 12.6519 147.685 12.6519C145.793 12.6519 144.478 13.9704 144.478 15.9504C144.478 17.9304 145.793 19.2489 147.685 19.2489C148.785 19.2489 149.674 18.7711 150.398 17.8983L152.469 19.7772C151.351 21.1784 149.642 21.9548 147.52 21.9548C143.868 21.9548 141.192 19.4648 141.192 15.955V15.9458Z" fill="#5B5B5F"/>
<path d="M164.867 10.1758V21.7159H161.614V17.2138H157.174V21.7159H153.921V10.1758H157.174V14.5125H161.614V10.1758H164.867Z" fill="#5B5B5F"/>
<path d="M174.884 19.474H170.018L169.115 21.7159H165.793L170.874 10.1758H174.082L179.177 21.7159H175.791L174.888 19.474H174.884ZM173.931 17.0668L172.451 13.3732L170.971 17.0668H173.931V17.0668Z" fill="#5B5B5F"/>
<path d="M179.337 15.9458C179.337 12.436 182.018 9.94604 185.665 9.94604C187.787 9.94604 189.496 10.7224 190.614 12.1236L188.543 14.0025C187.819 13.1297 186.93 12.6519 185.83 12.6519C183.938 12.6519 182.623 13.9704 182.623 15.9504C182.623 17.9304 183.938 19.2489 185.83 19.2489C186.93 19.2489 187.819 18.7711 188.543 17.8983L190.614 19.7772C189.496 21.1784 187.787 21.9548 185.665 21.9548C182.013 21.9548 179.337 19.4648 179.337 15.955V15.9458Z" fill="#5B5B5F"/>
<path d="M191.228 15.9458C191.228 12.4819 193.94 9.94604 197.624 9.94604C201.308 9.94604 204.02 12.4865 204.02 15.9458C204.02 19.4051 201.308 21.9456 197.624 21.9456C193.94 21.9456 191.228 19.4051 191.228 15.9458ZM200.731 15.9458C200.731 13.952 199.365 12.6473 197.624 12.6473C195.883 12.6473 194.517 13.9474 194.517 15.9458C194.517 17.9442 195.883 19.2443 197.624 19.2443C199.365 19.2443 200.731 17.9442 200.731 15.9458V15.9458Z" fill="#5B5B5F"/>
<path d="M123.168 6.57861C123.168 6.57861 123.795 6.51429 124.35 6.24784C124.721 6.07327 125.129 6.22946 125.193 6.29837C125.193 6.29837 124.693 5.78385 124.13 5.8206C123.562 5.86194 122.929 5.79763 122.815 5.62306L124.877 4.57562L122.774 4.63075C122.774 4.63075 123.296 4.27701 123.658 3.78086C123.901 3.45009 124.336 3.39496 124.423 3.42712C124.423 3.42712 123.74 3.2112 123.259 3.50981C122.787 3.80383 122.27 4.03813 122.072 3.95543L122.082 3.94625L123.534 2.15918L121.665 3.13311C121.665 3.13311 121.981 2.58183 122.091 1.98001C122.164 1.57574 122.531 1.33226 122.627 1.32767C122.627 1.32767 121.917 1.42873 121.614 1.9111C121.312 2.39347 120.941 2.83909 120.73 2.8299L121.33 0.565062L119.951 2.27862C119.951 2.27862 120.235 1.78247 120.001 0.927988C119.891 0.532904 120.153 0.16079 120.235 0.11485C120.235 0.11485 119.626 0.491558 119.539 1.05203C119.452 1.61249 119.355 2.09486 119.158 2.16837L118.654 0L118.132 2.08568C117.94 1.99839 117.848 1.61709 117.793 1.05203C117.733 0.486964 117.142 0.078098 117.142 0.078098C117.22 0.128632 117.463 0.509934 117.335 0.900424C117.124 1.55277 117.229 2.00298 117.289 2.17296L115.951 0.52831L116.551 2.78856C116.34 2.79775 115.969 2.35672 115.667 1.86976C115.364 1.39198 114.654 1.28632 114.654 1.28632C114.751 1.3001 115.117 1.53899 115.19 1.93867C115.305 2.54508 115.621 3.09176 115.621 3.09176L113.752 2.11783L115.204 3.90949L115.213 3.91868C115.021 4.00597 114.498 3.77167 114.027 3.47306C113.545 3.17445 112.863 3.39037 112.863 3.39037C112.95 3.35821 113.385 3.41334 113.628 3.74411C113.99 4.23567 114.512 4.594 114.512 4.594L112.409 4.53887L114.471 5.5863C114.356 5.76087 113.724 5.8206 113.156 5.77925C112.588 5.7425 112.088 6.25703 112.088 6.25703C112.153 6.18812 112.56 6.03192 112.931 6.20649C113.486 6.46835 114.114 6.53726 114.114 6.53726L112.235 7.48362L114.595 7.38715C114.563 7.59847 113.976 7.97978 113.449 8.18191C112.918 8.38864 112.679 9.06396 112.679 9.06396C112.707 8.97208 113.014 8.65969 113.422 8.66428C113.752 8.66428 114.127 8.67806 114.489 8.55403L113.367 10.2722L115.273 9.32582C115.245 9.37635 115.227 9.40851 115.227 9.40851C115.167 9.65659 115.08 9.96438 114.691 10.2814C114.251 10.6397 114.233 11.3564 114.233 11.3564C114.233 11.2599 114.425 10.8648 114.815 10.7454C115.401 10.5616 115.621 10.4376 115.859 10.2814C116.001 10.1849 116.175 10.0057 116.327 9.799C116.982 10.263 117.775 10.534 118.641 10.534C119.507 10.534 120.308 10.2538 120.968 9.78522C121.124 10.0011 121.303 10.1849 121.445 10.2814C121.683 10.4422 121.908 10.5616 122.489 10.7454C122.879 10.8648 123.071 11.2599 123.071 11.3564C123.071 11.3564 123.053 10.6351 122.613 10.2814C122.224 9.96438 122.141 9.65659 122.077 9.40851C122.077 9.40851 122.072 9.38554 122.054 9.34419L123.914 10.2722L122.801 8.56781C123.154 8.67806 123.516 8.66888 123.832 8.66428C124.24 8.65969 124.547 8.97208 124.579 9.06396C124.579 9.06396 124.341 8.38864 123.809 8.18191C123.278 7.97978 122.7 7.62144 122.668 7.41012L125.028 7.502L123.149 6.56023L123.168 6.57861ZM117.326 2.25565V2.26484L117.298 2.19134C117.316 2.23728 117.326 2.26025 117.326 2.26025V2.25565Z" fill="#FABD4D"/>
<path fill-rule="evenodd" clip-rule="evenodd" d="M128.3 22.5337C128.226 29.6452 123.86 35.3831 118.49 35.3831C113.12 35.3831 108.753 29.6452 108.68 22.5337H128.3Z" fill="white"/>
<path fill-rule="evenodd" clip-rule="evenodd" d="M108.849 22.5338C108.917 15.7576 113.211 10.2908 118.498 10.2908C123.786 10.2908 128.079 15.7576 128.148 22.5292H108.849V22.5338Z" fill="#83B7E4"/>
<path fill-rule="evenodd" clip-rule="evenodd" d="M106.078 22.63C105.198 22.2349 104.809 21.4631 104.717 20.4892C104.639 19.6715 104.749 18.8629 104.909 18.1233C105.18 18.6792 105.418 19.2902 105.748 19.8323C106.238 20.6362 106.334 21.4631 106.128 22.359C106.11 22.4371 106.096 22.5197 106.078 22.6254V22.63Z" fill="#3DA949"/>
<path fill-rule="evenodd" clip-rule="evenodd" d="M106.458 21.9272C106.504 21.0635 106.715 20.3377 107.42 19.8737C107.755 19.6577 108.011 19.2994 108.277 19.033C108.208 19.4234 108.149 19.892 108.043 20.3514C107.837 21.2702 107.31 21.7985 106.458 21.9272V21.9272Z" fill="#3DA949"/>
<path fill-rule="evenodd" clip-rule="evenodd" d="M106.559 25.4141C105.615 25.2211 105.07 24.555 104.763 23.627C104.511 22.8415 104.442 22.0329 104.438 21.2749C104.822 21.7573 105.189 22.3086 105.629 22.7588C106.284 23.4341 106.554 24.2243 106.55 25.1431C106.55 25.2257 106.55 25.3084 106.554 25.4141H106.559Z" fill="#3DA949"/>
<path fill-rule="evenodd" clip-rule="evenodd" d="M106.783 24.6467C106.641 23.7968 106.687 23.0434 107.278 22.437C107.558 22.1521 107.727 21.7478 107.924 21.4263C107.947 21.8214 107.988 22.2991 107.988 22.7631C107.988 23.7049 107.585 24.3297 106.783 24.6513V24.6467Z" fill="#3DA949"/>
<path fill-rule="evenodd" clip-rule="evenodd" d="M106.816 27.9683C105.863 27.8167 105.29 27.1735 104.946 26.2593C104.653 25.4921 104.557 24.679 104.52 23.9255C104.923 24.3895 105.313 24.9224 105.775 25.3589C106.458 26.002 106.761 26.7784 106.802 27.6972C106.802 27.7799 106.811 27.8672 106.82 27.9683H106.816Z" fill="#3DA949"/>
<path fill-rule="evenodd" clip-rule="evenodd" d="M107.004 27.1918C106.82 26.3465 106.834 25.5931 107.402 24.9591C107.668 24.6651 107.819 24.2471 108.007 23.9209C108.044 24.316 108.108 24.7846 108.131 25.2532C108.167 26.1949 107.792 26.8427 107.008 27.1918H107.004Z" fill="#3DA949"/>
<path fill-rule="evenodd" clip-rule="evenodd" d="M107.549 30.5501C106.586 30.5133 105.936 29.9437 105.487 29.08C105.106 28.3495 104.909 27.5594 104.786 26.8105C105.244 27.224 105.693 27.7018 106.201 28.0831C106.957 28.6436 107.352 29.374 107.503 30.2836C107.512 30.3663 107.53 30.449 107.549 30.5501Z" fill="#3DA949"/>
<path fill-rule="evenodd" clip-rule="evenodd" d="M107.64 29.76C107.36 28.9422 107.287 28.1888 107.768 27.4951C107.997 27.1736 108.098 26.7371 108.245 26.3926C108.327 26.7785 108.451 27.2379 108.529 27.7019C108.675 28.6299 108.382 29.319 107.64 29.76V29.76Z" fill="#3DA949"/>
<path fill-rule="evenodd" clip-rule="evenodd" d="M108.845 32.1764C108.405 31.423 108.19 30.7064 108.525 29.93C108.68 29.567 108.699 29.126 108.772 28.7539C108.928 29.1168 109.139 29.5441 109.304 29.9851C109.633 30.8625 109.482 31.5976 108.841 32.1764H108.845Z" fill="#3DA949"/>
<path fill-rule="evenodd" clip-rule="evenodd" d="M110.357 34.317C109.803 33.6555 109.459 32.9847 109.656 32.1624C109.752 31.7765 109.693 31.3355 109.702 30.9634C109.922 31.2896 110.201 31.6754 110.44 32.0797C110.912 32.8929 110.889 33.6417 110.357 34.317V34.317Z" fill="#3DA949"/>
<path fill-rule="evenodd" clip-rule="evenodd" d="M112.671 35.8839C111.956 35.4015 111.443 34.8503 111.407 34.0004C111.388 33.6053 111.214 33.1964 111.123 32.8335C111.42 33.0908 111.796 33.3848 112.135 33.7064C112.813 34.3587 112.997 35.08 112.671 35.8839Z" fill="#3DA949"/>
<path fill-rule="evenodd" clip-rule="evenodd" d="M105.949 15.762C106.16 16.4005 106.352 17.0391 106.577 17.6685C106.861 18.4632 106.71 19.1845 106.398 19.9149C105.954 19.6209 105.661 19.2029 105.546 18.6424C105.409 17.9946 105.486 17.3653 105.647 16.7543C105.738 16.4097 105.858 16.0744 105.949 15.762V15.762Z" fill="#3DA949"/>
<path fill-rule="evenodd" clip-rule="evenodd" d="M105.257 29.9296C105.858 30.2283 106.449 30.5361 107.058 30.8117C107.819 31.1608 108.231 31.7764 108.533 32.5115C108.011 32.6263 107.516 32.5436 107.031 32.2312C106.476 31.8775 106.077 31.3813 105.752 30.8393C105.569 30.5315 105.413 30.2145 105.257 29.925V29.9296Z" fill="#3DA949"/>
<path fill-rule="evenodd" clip-rule="evenodd" d="M108.845 17.1631C108.708 17.549 108.58 17.99 108.401 18.3989C108.089 19.1018 107.553 19.3958 106.834 19.382C106.994 18.6791 107.223 18.0773 107.879 17.7925C108.222 17.6409 108.525 17.379 108.85 17.1631H108.845Z" fill="#3DA949"/>
<path fill-rule="evenodd" clip-rule="evenodd" d="M106.714 17.3378C106.238 16.7314 106.192 16.0561 106.426 15.3302C106.623 14.7009 106.966 14.168 107.388 13.5891C107.365 13.8372 107.337 14.0026 107.337 14.168C107.347 14.5539 107.337 14.9489 107.397 15.3256C107.512 16.0469 107.278 16.6166 106.888 17.1449C106.847 17.2046 106.806 17.2597 106.76 17.3194C106.76 17.3194 106.746 17.324 106.71 17.3378H106.714Z" fill="#3DA949"/>
<path fill-rule="evenodd" clip-rule="evenodd" d="M107.25 17.0025C107.544 16.4007 107.942 15.9872 108.579 15.9137C108.891 15.8769 109.193 15.7483 109.45 15.6748C108.859 16.8233 108.226 17.347 107.25 17.0025Z" fill="#3DA949"/>
<path fill-rule="evenodd" clip-rule="evenodd" d="M107.672 15.3624C107.401 14.8295 107.383 14.315 107.603 13.7775C107.869 13.1297 108.313 12.6703 108.776 12.2339C108.694 12.8725 108.629 13.5064 108.524 14.1358C108.428 14.6733 108.07 15.0178 107.672 15.3624V15.3624Z" fill="#3DA949"/>
<path fill-rule="evenodd" clip-rule="evenodd" d="M110.366 14.4067C109.757 15.0729 109.138 15.7344 108.185 15.1602C108.547 14.6732 108.973 14.37 109.573 14.4573C109.835 14.494 110.109 14.4251 110.361 14.4067H110.366Z" fill="#3DA949"/>
<path fill-rule="evenodd" clip-rule="evenodd" d="M109.106 13.9612C108.808 13.4375 108.758 12.9275 108.951 12.3808C109.184 11.7239 109.601 11.2369 110.046 10.7729C109.995 11.4161 109.968 12.0593 109.89 12.6886C109.826 13.2307 109.487 13.5937 109.111 13.9612H109.106Z" fill="#3DA949"/>
<path fill-rule="evenodd" clip-rule="evenodd" d="M111.746 12.8538C111.173 13.5475 110.591 14.2503 109.606 13.7312C109.945 13.2213 110.353 12.8951 110.958 12.9502C111.223 12.9732 111.494 12.8905 111.746 12.8538V12.8538Z" fill="#3DA949"/>
<path fill-rule="evenodd" clip-rule="evenodd" d="M110.252 12.3627C110.064 11.793 110.119 11.2831 110.417 10.7869C110.774 10.1851 111.283 9.79921 111.805 9.43628C111.627 10.0519 111.471 10.6767 111.269 11.2785C111.095 11.8022 110.692 12.087 110.247 12.3673L110.252 12.3627Z" fill="#3DA949"/>
<path fill-rule="evenodd" clip-rule="evenodd" d="M113.079 11.5817C112.442 12.2156 111.796 12.8634 110.866 12.2478C111.251 11.77 111.691 11.4898 112.287 11.5954C112.548 11.6414 112.823 11.5863 113.079 11.5771V11.5817Z" fill="#3DA949"/>
<path fill-rule="evenodd" clip-rule="evenodd" d="M114.88 37.2205C114.114 36.8208 113.542 36.3247 113.413 35.4886C113.354 35.0981 113.134 34.7122 113.001 34.363C113.326 34.5835 113.734 34.8316 114.105 35.121C114.852 35.6907 115.113 36.389 114.88 37.2251V37.2205Z" fill="#3DA949"/>
<path fill-rule="evenodd" clip-rule="evenodd" d="M114.44 9.1604C113.711 10.41 113.271 11.5677 111.581 11.0026C111.984 10.1068 112.547 9.48658 113.519 9.41307C113.945 9.37632 114.046 9.27525 114.44 9.1604V9.1604Z" fill="#3DA949"/>
<path fill-rule="evenodd" clip-rule="evenodd" d="M116.52 38.3142C116.093 38.7873 115.553 38.9206 114.93 38.8333C114.389 38.7598 113.912 38.5576 113.381 38.2912C113.587 38.2774 113.725 38.2774 113.857 38.2498C114.174 38.1901 114.494 38.1396 114.792 38.0385C115.36 37.8456 115.855 37.9512 116.341 38.1947C116.396 38.2223 116.446 38.2452 116.501 38.2774C116.501 38.2774 116.506 38.2866 116.524 38.3142H116.52Z" fill="#3DA949"/>
<path fill-rule="evenodd" clip-rule="evenodd" d="M112.744 36.5866C112.217 36.8669 111.708 36.899 111.167 36.6923C110.517 36.4442 110.045 36.0078 109.605 35.553C110.242 35.6219 110.874 35.6678 111.506 35.7643C112.047 35.8516 112.4 36.2007 112.748 36.5912L112.744 36.5866Z" fill="#3DA949"/>
<path fill-rule="evenodd" clip-rule="evenodd" d="M114.796 37.4595C114.343 37.8454 113.848 37.9878 113.275 37.8959C112.588 37.7903 112.033 37.4595 111.506 37.1103C112.143 37.0414 112.771 36.9541 113.408 36.9174C113.953 36.8852 114.37 37.1563 114.792 37.4641L114.796 37.4595Z" fill="#3DA949"/>
<path fill-rule="evenodd" clip-rule="evenodd" d="M111.089 35.0934C110.576 35.4058 110.068 35.4609 109.518 35.2817C108.853 35.0658 108.363 34.6569 107.891 34.2251C108.533 34.2618 109.174 34.2756 109.806 34.3399C110.347 34.3951 110.718 34.7258 111.094 35.0934H111.089Z" fill="#3DA949"/>
<path fill-rule="evenodd" clip-rule="evenodd" d="M109.486 33.9084C108.931 34.1243 108.418 34.0968 107.905 33.8211C107.287 33.4949 106.874 33.0034 106.489 32.498C107.112 32.6405 107.74 32.7691 108.35 32.9391C108.876 33.0861 109.183 33.4766 109.481 33.9084H109.486Z" fill="#3DA949"/>
<path fill-rule="evenodd" clip-rule="evenodd" d="M131.14 22.63C132.02 22.2349 132.409 21.4631 132.501 20.4892C132.579 19.6715 132.469 18.8629 132.309 18.1233C132.038 18.6792 131.8 19.2902 131.47 19.8323C130.98 20.6362 130.884 21.4631 131.09 22.359C131.104 22.4371 131.122 22.5197 131.14 22.6254V22.63Z" fill="#3DA949"/>
<path fill-rule="evenodd" clip-rule="evenodd" d="M130.76 21.9272C130.714 21.0635 130.503 20.3377 129.798 19.8737C129.463 19.6577 129.207 19.2994 128.941 19.033C129.01 19.4234 129.065 19.892 129.175 20.3514C129.381 21.2702 129.908 21.7985 130.76 21.9272V21.9272Z" fill="#3DA949"/>
<path fill-rule="evenodd" clip-rule="evenodd" d="M130.655 25.4141C131.599 25.2211 132.149 24.555 132.451 23.627C132.703 22.8415 132.772 22.0329 132.776 21.2749C132.391 21.7573 132.025 22.3086 131.585 22.7588C130.93 23.4341 130.659 24.2243 130.664 25.1431C130.664 25.2257 130.664 25.3084 130.659 25.4141H130.655Z" fill="#3DA949"/>
<path fill-rule="evenodd" clip-rule="evenodd" d="M130.435 24.6467C130.577 23.7968 130.531 23.0434 129.94 22.437C129.661 22.1521 129.491 21.7478 129.294 21.4263C129.271 21.8214 129.225 22.2991 129.23 22.7631C129.23 23.7049 129.633 24.3297 130.435 24.6513V24.6467Z" fill="#3DA949"/>
<path fill-rule="evenodd" clip-rule="evenodd" d="M130.403 27.9685C131.356 27.8169 131.929 27.1737 132.272 26.2595C132.566 25.4923 132.662 24.6792 132.698 23.9258C132.3 24.3898 131.906 24.9227 131.443 25.3591C130.76 26.0023 130.458 26.7787 130.417 27.6975C130.417 27.7801 130.407 27.8674 130.403 27.9685V27.9685Z" fill="#3DA949"/>
<path fill-rule="evenodd" clip-rule="evenodd" d="M130.215 27.1921C130.393 26.3468 130.384 25.5934 129.816 24.9594C129.55 24.6654 129.399 24.2473 129.211 23.9211C129.174 24.3162 129.11 24.7848 129.087 25.2534C129.051 26.1952 129.426 26.8429 130.21 27.1921H130.215Z" fill="#3DA949"/>
<path fill-rule="evenodd" clip-rule="evenodd" d="M129.669 30.5503C130.636 30.5136 131.278 29.9439 131.731 29.0802C132.112 28.3498 132.309 27.5596 132.432 26.8108C131.974 27.2243 131.525 27.702 131.017 28.0833C130.261 28.6438 129.866 29.3742 129.72 30.2839C129.711 30.3665 129.692 30.4492 129.674 30.5503H129.669Z" fill="#3DA949"/>
<path fill-rule="evenodd" clip-rule="evenodd" d="M129.573 29.76C129.857 28.9422 129.93 28.1888 129.445 27.4951C129.216 27.1736 129.115 26.7371 128.968 26.3926C128.886 26.7785 128.762 27.2379 128.684 27.7019C128.537 28.6299 128.831 29.319 129.568 29.76H129.573Z" fill="#3DA949"/>
<path fill-rule="evenodd" clip-rule="evenodd" d="M128.373 32.1764C128.808 31.423 129.033 30.7064 128.689 29.93C128.533 29.567 128.515 29.126 128.442 28.7539C128.286 29.1168 128.075 29.5441 127.91 29.9851C127.58 30.8625 127.731 31.5976 128.373 32.1764V32.1764Z" fill="#3DA949"/>
<path fill-rule="evenodd" clip-rule="evenodd" d="M126.857 34.3172C127.416 33.6557 127.755 32.985 127.558 32.1627C127.461 31.7768 127.521 31.3357 127.512 30.9636C127.292 31.2898 127.017 31.6757 126.774 32.08C126.302 32.8931 126.325 33.6419 126.857 34.3172V34.3172Z" fill="#3DA949"/>
<path fill-rule="evenodd" clip-rule="evenodd" d="M124.547 35.8839C125.261 35.4015 125.775 34.8503 125.811 34.0004C125.825 33.6053 126.004 33.1964 126.095 32.8335C125.798 33.0908 125.422 33.3848 125.083 33.7064C124.405 34.3587 124.221 35.08 124.547 35.8839Z" fill="#3DA949"/>
<path fill-rule="evenodd" clip-rule="evenodd" d="M131.268 15.7622C131.058 16.4008 130.87 17.0393 130.641 17.6687C130.357 18.4635 130.508 19.1847 130.819 19.9152C131.264 19.6212 131.553 19.2031 131.672 18.6426C131.809 17.9949 131.731 17.3655 131.571 16.7545C131.479 16.41 131.36 16.0746 131.264 15.7622H131.268Z" fill="#3DA949"/>
<path fill-rule="evenodd" clip-rule="evenodd" d="M131.956 29.9299C131.356 30.2285 130.765 30.5363 130.155 30.8119C129.39 31.1611 128.982 31.7767 128.675 32.5117C129.198 32.6266 129.697 32.5439 130.178 32.2315C130.737 31.8777 131.131 31.3816 131.457 30.8395C131.64 30.5317 131.796 30.2147 131.951 29.9253L131.956 29.9299Z" fill="#3DA949"/>
<path fill-rule="evenodd" clip-rule="evenodd" d="M128.373 17.1633C128.511 17.5492 128.639 17.9903 128.822 18.3991C129.134 19.102 129.67 19.396 130.389 19.3822C130.229 18.6794 130 18.0775 129.344 17.7927C129.001 17.6411 128.694 17.3792 128.373 17.1633V17.1633Z" fill="#3DA949"/>
<path fill-rule="evenodd" clip-rule="evenodd" d="M130.504 17.3378C130.98 16.7314 131.021 16.0561 130.792 15.3302C130.595 14.7009 130.252 14.168 129.83 13.5891C129.853 13.8372 129.88 14.0026 129.876 14.168C129.867 14.5539 129.876 14.9489 129.816 15.3256C129.702 16.0469 129.935 16.6166 130.325 17.1449C130.366 17.2046 130.407 17.2597 130.453 17.3194C130.458 17.3194 130.467 17.324 130.504 17.3378Z" fill="#3DA949"/>
<path fill-rule="evenodd" clip-rule="evenodd" d="M129.967 17.0025C129.674 16.4007 129.276 15.9872 128.639 15.9137C128.327 15.8769 128.025 15.7483 127.768 15.6748C128.359 16.8233 128.996 17.347 129.967 17.0025V17.0025Z" fill="#3DA949"/>
<path fill-rule="evenodd" clip-rule="evenodd" d="M129.541 15.3624C129.812 14.8295 129.835 14.315 129.61 13.7775C129.344 13.1297 128.9 12.6703 128.433 12.2339C128.515 12.8725 128.579 13.5064 128.685 14.1358C128.781 14.6733 129.143 15.0178 129.537 15.3624H129.541Z" fill="#3DA949"/>
<path fill-rule="evenodd" clip-rule="evenodd" d="M126.852 14.407C127.461 15.0731 128.08 15.7346 129.033 15.1604C128.671 14.6734 128.244 14.3702 127.644 14.4575C127.383 14.4943 127.108 14.4254 126.852 14.407Z" fill="#3DA949"/>
<path fill-rule="evenodd" clip-rule="evenodd" d="M128.108 13.9614C128.405 13.4377 128.456 12.9278 128.263 12.3811C128.034 11.7242 127.613 11.2372 127.173 10.7732C127.223 11.4164 127.251 12.0595 127.333 12.6889C127.397 13.231 127.736 13.5939 128.112 13.9614H128.108Z" fill="#3DA949"/>
<path fill-rule="evenodd" clip-rule="evenodd" d="M125.473 12.854C126.045 13.5477 126.627 14.2506 127.612 13.7315C127.273 13.2215 126.866 12.8953 126.265 12.9505C126 12.9734 125.729 12.8908 125.477 12.854H125.473Z" fill="#3DA949"/>
<path fill-rule="evenodd" clip-rule="evenodd" d="M126.966 12.3624C127.154 11.7928 127.099 11.2828 126.801 10.7867C126.444 10.1849 125.935 9.79896 125.413 9.43604C125.591 10.0516 125.747 10.6764 125.949 11.2782C126.123 11.8019 126.531 12.0868 126.97 12.367L126.966 12.3624Z" fill="#3DA949"/>
<path fill-rule="evenodd" clip-rule="evenodd" d="M124.139 11.5814C124.776 12.2154 125.422 12.8631 126.352 12.2476C125.967 11.7698 125.527 11.4895 124.931 11.5952C124.67 11.6411 124.395 11.586 124.139 11.5768V11.5814Z" fill="#3DA949"/>
<path fill-rule="evenodd" clip-rule="evenodd" d="M122.334 37.2207C123.099 36.8211 123.672 36.3249 123.8 35.4888C123.859 35.0983 124.079 34.7124 124.212 34.3633C123.887 34.5838 123.484 34.8319 123.113 35.1213C122.366 35.6909 122.105 36.3892 122.338 37.2253L122.334 37.2207Z" fill="#3DA949"/>
<path fill-rule="evenodd" clip-rule="evenodd" d="M123.007 9.33496C123.479 10.6488 123.942 11.5722 125.633 11.0026C125.23 10.1068 124.666 9.48656 123.695 9.41306C123.268 9.37631 123.397 9.44981 123.007 9.33496Z" fill="#3DA949"/>
<path fill-rule="evenodd" clip-rule="evenodd" d="M120.698 38.3142C121.125 38.7873 121.665 38.9206 122.288 38.8333C122.829 38.7598 123.31 38.5576 123.837 38.2912C123.635 38.2774 123.493 38.2774 123.361 38.2498C123.044 38.1901 122.724 38.1396 122.426 38.0385C121.858 37.8456 121.363 37.9512 120.877 38.1947C120.822 38.2223 120.772 38.2452 120.717 38.2774C120.717 38.2774 120.708 38.2866 120.694 38.3142H120.698Z" fill="#3DA949"/>
<path fill-rule="evenodd" clip-rule="evenodd" d="M124.474 36.5866C125.001 36.8669 125.509 36.899 126.05 36.6923C126.701 36.4442 127.173 36.0078 127.612 35.553C126.976 35.6219 126.343 35.6678 125.711 35.7643C125.17 35.8516 124.817 36.2007 124.469 36.5912L124.474 36.5866Z" fill="#3DA949"/>
<path fill-rule="evenodd" clip-rule="evenodd" d="M122.417 37.4595C122.87 37.8454 123.365 37.9878 123.938 37.8959C124.625 37.7903 125.179 37.4595 125.706 37.1103C125.069 37.0414 124.442 36.9541 123.8 36.9174C123.255 36.8852 122.838 37.1563 122.417 37.4641V37.4595Z" fill="#3DA949"/>
<path fill-rule="evenodd" clip-rule="evenodd" d="M126.128 35.0936C126.641 35.406 127.15 35.4611 127.704 35.282C128.368 35.066 128.859 34.6572 129.331 34.2253C128.689 34.2621 128.048 34.2759 127.415 34.3402C126.875 34.3953 126.504 34.7261 126.128 35.0936Z" fill="#3DA949"/>
<path fill-rule="evenodd" clip-rule="evenodd" d="M127.727 33.9084C128.286 34.1243 128.795 34.0968 129.308 33.8211C129.926 33.4949 130.339 33.0034 130.724 32.498C130.101 32.6405 129.473 32.7691 128.863 32.9391C128.336 33.0861 128.029 33.4766 127.732 33.9084H127.727Z" fill="#3DA949"/>
<path d="M122.366 33.3296C122.366 33.3296 122.151 32.985 117.046 34.4459C117.046 34.4459 120.125 35.1396 122.366 33.3296Z" fill="#ADCE78"/>
<path d="M114.783 33.5686C115.213 33.8213 115.658 34.0326 116.121 34.198C118.549 33.1092 123.933 32.172 124.025 32.1536C123.956 32.1536 120.643 31.9699 114.783 33.5686V33.5686Z" fill="#ADCE78"/>
<path d="M113.28 32.4383C113.596 32.7323 113.93 33.0033 114.274 33.2468C114.984 32.9849 118.622 31.717 123.131 31.377C123.131 31.377 121.445 30.7569 113.28 32.4429V32.4383Z" fill="#ADCE78"/>
<path d="M112.253 31.3268C112.464 31.5886 112.684 31.8413 112.913 32.0802C113.591 31.8872 118.031 30.6744 122.077 30.5734C122.077 30.5734 120.551 29.7648 112.253 31.3314V31.3268Z" fill="#ADCE78"/>
<path d="M120.909 29.8612C120.909 29.8612 119.076 29.048 111.456 30.1782C111.598 30.4171 111.749 30.6468 111.905 30.8719C112.437 30.7432 116.675 29.7417 120.904 29.8612H120.909Z" fill="#ADCE78"/>
<path d="M119.708 29.002C119.708 29.002 117.294 28.0556 110.847 29.0158C110.934 29.2041 111.025 29.3879 111.117 29.5671C111.506 29.4982 116.198 28.6666 119.708 28.9974V29.002Z" fill="#ADCE78"/>
<path d="M118.43 27.9638C118.43 27.9638 118.467 27.9638 118.485 27.9638C118.485 27.9638 118.481 27.9638 118.467 27.9546C118.297 27.8673 116.895 27.2884 110.375 27.8443C110.43 28.0051 110.49 28.1613 110.549 28.3175C110.874 28.2762 114.517 27.7938 118.43 27.9638V27.9638Z" fill="#ADCE78"/>
<path d="M117.133 27.0955L116.826 26.5718C116.826 26.5718 111.85 26.5029 110.036 26.7096C110.068 26.8383 110.104 26.9715 110.136 27.0955C110.631 27.0772 114.59 26.921 117.133 27.0955V27.0955Z" fill="#ADCE78"/>
<path d="M118.086 5.71529L118.082 5.7107L118.072 5.70151L118.045 5.68773L118.017 5.66476L117.917 5.60963L117.816 5.5591L117.72 5.51775L117.619 5.48559L117.518 5.46262L117.422 5.44884L117.33 5.43965L117.234 5.43506H117.138L117.041 5.43965L116.954 5.44884L116.867 5.46262L116.785 5.481L116.698 5.50397L116.62 5.53153L116.542 5.5545L116.469 5.58207L116.4 5.61882L116.331 5.65098L116.267 5.67854L116.208 5.71529L116.153 5.74286L116.102 5.77501L116.056 5.80717L115.978 5.85771L115.919 5.90364L115.882 5.93121L115.873 5.9404V5.94499V5.94959L115.882 5.95418L115.891 5.96337L115.901 5.96796H115.91H115.928L115.942 5.96337L115.965 5.95418L115.988 5.94959L116.015 5.9404L116.043 5.92662L116.075 5.90364L116.111 5.87149L116.166 5.84392L116.221 5.81636L116.29 5.77961L116.359 5.74745L116.437 5.71529L116.524 5.68773L116.602 5.66016L116.698 5.6326L116.785 5.60963L116.876 5.59125L116.968 5.57288L117.06 5.56828L117.106 5.56369L117.147 5.5591L117.188 5.56369H117.234L117.289 5.57288L117.344 5.58207L117.394 5.59585L117.449 5.61422L117.55 5.65098L117.642 5.69692L117.692 5.71529L117.738 5.73367L117.784 5.74745L117.825 5.76583L117.866 5.77501L117.912 5.7842H117.935H117.953H117.976L117.994 5.77961L118.022 5.77501H118.045L118.063 5.76583L118.077 5.76123L118.086 5.75664L118.091 5.74745L118.095 5.74286V5.73367L118.091 5.72448L118.086 5.71529Z" fill="black"/>
<path d="M117.806 6.00452L117.724 5.97236L117.642 5.93561L117.559 5.91264L117.481 5.89426L117.399 5.88048L117.321 5.87129L117.238 5.8667L117.165 5.87129L117.092 5.87589L117.018 5.88508L116.945 5.89426L116.876 5.90805L116.808 5.93101L116.743 5.94939L116.679 5.97236L116.62 5.99074L116.565 6.01371L116.51 6.04127L116.414 6.08721L116.336 6.13315L116.217 6.21125L116.175 6.23881V6.248H116.184L116.189 6.25719H116.207L116.235 6.2526L116.267 6.248L116.308 6.22963L116.336 6.21125L116.368 6.19287L116.409 6.1699L116.45 6.14693L116.505 6.12396L116.56 6.10099L116.62 6.07802L116.688 6.05505L116.757 6.03668L116.826 6.0183L116.895 5.99993L116.968 5.98614L117.041 5.97696L117.11 5.97236L117.183 5.96777L117.247 5.97236L117.302 5.97696L117.357 5.98155L117.403 5.99533L117.454 6.00911L117.55 6.04586L117.642 6.07802L117.687 6.09181L117.729 6.10559L117.77 6.11478L117.811 6.12396H117.852H117.894H117.912L117.935 6.11937L117.953 6.11018L117.971 6.10559L117.884 6.05046L117.806 6.00452Z" fill="black"/>
<path d="M117.788 6.26657L117.72 6.21144L117.646 6.1655L117.573 6.12415L117.495 6.09199L117.422 6.06902L117.348 6.05065L117.275 6.04146H117.202L117.128 6.03687H117.06L116.986 6.04605L116.922 6.05983L116.858 6.07821L116.789 6.09659L116.73 6.11956L116.666 6.14253L116.611 6.1655L116.556 6.19306L116.505 6.22063L116.455 6.2436L116.409 6.27116L116.372 6.29413L116.304 6.34466L116.253 6.37682L116.221 6.40438L116.208 6.41357L116.249 6.43654L116.304 6.4687L116.372 6.50086L116.45 6.53302L116.542 6.56518L116.638 6.59733L116.689 6.61112L116.744 6.6203L116.799 6.63408L116.858 6.64327H116.918L116.977 6.65706H117.037H117.101H117.229L117.293 6.64327L117.362 6.63408L117.431 6.6203L117.5 6.60652L117.568 6.58355L117.637 6.56058L117.71 6.52842L117.779 6.49627L117.852 6.45951L117.926 6.41357L117.852 6.34007L117.779 6.27575L117.788 6.26657ZM117.115 6.15172H117.142L117.165 6.1609L117.188 6.17009L117.206 6.18387L117.225 6.20684L117.234 6.22981L117.243 6.24819V6.27116V6.29872L117.234 6.32169L117.225 6.34007L117.206 6.35845L117.188 6.37223L117.165 6.38601L117.142 6.3952H117.115H117.092L117.064 6.38601L117.041 6.37223L117.023 6.35845L117.009 6.34007L116.996 6.32169L116.986 6.29872V6.27116V6.24819L116.996 6.22981L117.009 6.20684L117.023 6.18387L117.041 6.17009L117.064 6.1609L117.092 6.15172H117.115ZM116.89 6.12415L116.945 6.11496L117.005 6.10578L117.064 6.09659L117.046 6.11037H117.028L117.014 6.12415L117 6.13334L116.982 6.14712L116.973 6.15631L116.964 6.17468L116.95 6.18847V6.20684L116.936 6.22063V6.239L116.927 6.25738V6.31251L116.936 6.32629V6.34466L116.95 6.35845L116.964 6.37223L116.973 6.3906L116.982 6.40438L117 6.41357L117.014 6.42736L117.028 6.43654L117.046 6.44573H117.064L117.083 6.45492H117.101H117.119H117.156L117.174 6.44573H117.188L117.202 6.43654L117.22 6.42736L117.234 6.41357L117.248 6.40438L117.257 6.3906L117.271 6.37223V6.35845L117.289 6.34466V6.32629L117.298 6.31251V6.29872V6.27575V6.2436L117.293 6.22522V6.21144L117.275 6.19306V6.17928L117.257 6.1609L117.248 6.15172L117.234 6.13793L117.22 6.12875L117.202 6.11956H117.188L117.174 6.10578H117.156L117.188 6.10118H117.248L117.312 6.11496L117.371 6.12875H117.381L117.385 6.13793V6.15631L117.399 6.17468L117.408 6.19306V6.21603L117.417 6.23441V6.25278L117.422 6.27575V6.30791L117.417 6.34007L117.408 6.36763L117.399 6.39979L117.39 6.42736L117.371 6.45033L117.353 6.4733L117.339 6.49627L117.316 6.51923L117.293 6.53761L117.266 6.55139L117.238 6.56518L117.206 6.57436H117.179L117.151 6.58355H117.06L117.032 6.57436L117.005 6.56518L116.977 6.55139L116.954 6.53761L116.931 6.51923L116.913 6.49627L116.89 6.4733L116.876 6.45033L116.863 6.42736L116.849 6.39979L116.84 6.36763V6.34007L116.831 6.30791V6.27575V6.2436L116.84 6.20225L116.854 6.1655L116.863 6.14253L116.904 6.12875L116.89 6.12415ZM116.844 6.56977H116.799L116.757 6.55139L116.712 6.54221L116.629 6.51464L116.556 6.49167L116.487 6.46411L116.432 6.44114L116.386 6.41817L116.35 6.39979L116.386 6.37223L116.487 6.30332L116.56 6.25738L116.643 6.21603L116.689 6.19766L116.739 6.17928H116.753V6.18847V6.21603L116.748 6.2436V6.27116V6.29872V6.32169L116.753 6.34466V6.36763L116.762 6.3906L116.771 6.41357L116.78 6.43654L116.789 6.45492L116.799 6.47789L116.808 6.49627L116.822 6.51464L116.84 6.53302L116.854 6.5468L116.872 6.56058L116.886 6.57436H116.854L116.844 6.56977ZM117.747 6.43195L117.687 6.45951L117.628 6.49167L117.573 6.51464L117.509 6.53302L117.449 6.55139L117.39 6.56977H117.367L117.39 6.55139L117.422 6.51923L117.445 6.48708L117.463 6.45033L117.481 6.40898L117.495 6.36763V6.32629L117.5 6.27575V6.21603L117.49 6.18387V6.17009L117.5 6.17468L117.564 6.20225L117.623 6.2436L117.687 6.28953L117.747 6.34007L117.811 6.39979L117.747 6.43654V6.43195Z" fill="black"/>
<path d="M121.303 5.8577L121.243 5.81636L121.165 5.76123L121.119 5.72907L121.074 5.70151L121.014 5.66935L120.954 5.6326L120.89 5.60503L120.826 5.57288L120.753 5.54531L120.68 5.51315L120.606 5.48559L120.524 5.46262L120.437 5.43965L120.359 5.42127L120.267 5.41208L120.18 5.39371L120.088 5.38911L119.992 5.38452L119.901 5.39371L119.8 5.4029L119.704 5.42127L119.607 5.44424L119.507 5.481L119.401 5.51775L119.305 5.56369L119.204 5.61881L119.177 5.63719L119.154 5.65557L119.145 5.66476L119.14 5.67394L119.131 5.68773V5.69691V5.7061L119.14 5.71069L119.149 5.71529L119.158 5.72448L119.181 5.72907L119.2 5.73366L119.227 5.73826H119.245L119.268 5.74285H119.291L119.31 5.73826L119.355 5.72907L119.397 5.71988L119.438 5.7061L119.484 5.68773L119.534 5.66935L119.58 5.65097L119.676 5.60963L119.777 5.56828L119.832 5.54991L119.882 5.54072L119.937 5.52693H119.988L120.029 5.51775H120.075H120.116L120.162 5.52693L120.253 5.53153L120.341 5.54531L120.437 5.56828L120.528 5.58666L120.615 5.61881L120.702 5.64638L120.78 5.67394L120.863 5.7061L120.932 5.73366L121 5.76582L121.06 5.80258L121.11 5.83014L121.147 5.8577L121.179 5.88067L121.211 5.89446L121.239 5.90824L121.257 5.91283L121.28 5.91743L121.294 5.92202H121.312H121.321L121.33 5.91743L121.344 5.91283L121.349 5.90824L121.353 5.89905V5.89446L121.344 5.88527L121.303 5.8577Z" fill="black"/>
<path d="M120.89 6.09189L120.803 6.04595L120.712 5.99542L120.657 5.97245L120.602 5.94948L120.542 5.92191L120.478 5.90354L120.414 5.88516L120.345 5.86679L120.276 5.853L120.203 5.84382L120.13 5.83003L120.056 5.82544H119.983L119.901 5.83003L119.823 5.83922L119.745 5.84841L119.662 5.87138L119.58 5.89435L119.497 5.92651L119.415 5.96785L119.332 6.0092L119.25 6.05973L119.273 6.06892L119.291 6.07352L119.31 6.07811H119.332H119.374H119.41L119.452 6.06892L119.493 6.05973L119.539 6.04595L119.584 6.03217L119.672 6.00001L119.768 5.96785L119.818 5.94948L119.869 5.94029L119.924 5.9311L119.974 5.92191H120.043H120.107L120.185 5.9311L120.253 5.94488L120.327 5.95407L120.395 5.97704L120.469 5.99082L120.533 6.01379L120.602 6.03676L120.661 6.05514L120.716 6.07811L120.771 6.10567L120.812 6.12405L120.854 6.14702L120.886 6.16999L120.913 6.18377L120.954 6.20215L120.991 6.21134L121.014 6.21593L121.032 6.21134L121.042 6.20674L121.046 6.20215V6.19755L121.005 6.1654L120.89 6.09189Z" fill="black"/>
<path d="M120.849 6.24799L120.808 6.22042L120.762 6.19286L120.711 6.1653L120.661 6.14232L120.606 6.11476L120.556 6.09179L120.491 6.06882L120.432 6.04585L120.368 6.02747L120.304 6.01369L120.23 5.99991H120.162L120.093 5.99072H120.02L119.946 5.99991L119.873 6.0091L119.8 6.02747L119.726 6.05045L119.653 6.0826L119.575 6.11935L119.502 6.1653L119.433 6.22042L119.36 6.28933L119.291 6.36284L119.36 6.40418L119.433 6.44553L119.502 6.47769L119.575 6.50985L119.644 6.53281L119.713 6.55119L119.781 6.56957L119.85 6.58335L119.919 6.59254L119.983 6.60172H120.047H120.116H120.239L120.304 6.59254L120.363 6.58335L120.414 6.57416L120.469 6.56038L120.528 6.55119L120.574 6.53741L120.675 6.50525L120.766 6.47769L120.84 6.44553L120.908 6.41337L120.963 6.38581L121.009 6.36284L120.963 6.33068L120.849 6.24339V6.24799ZM120.134 6.11017H120.157L120.18 6.12854L120.198 6.14692L120.217 6.1653L120.226 6.18367L120.235 6.20664V6.22961V6.25258L120.226 6.27555L120.217 6.29852L120.198 6.3169L120.18 6.33068L120.157 6.34446H120.134L120.107 6.35365H120.079L120.056 6.34446L120.033 6.33068L120.015 6.3169L120.001 6.29852L119.987 6.27555V6.25258L119.978 6.22961V6.20664L119.987 6.18367L120.001 6.1653L120.015 6.14692L120.033 6.12854L120.056 6.11935H120.079L120.107 6.11017H120.134V6.11017ZM119.914 6.06882L119.978 6.05963H120.038L120.084 6.05504H120.065L120.047 6.06423H120.029L120.015 6.07801H119.997L119.983 6.09638L119.969 6.11017L119.955 6.12395L119.946 6.13314L119.937 6.15151V6.1653L119.923 6.18367V6.20205L119.919 6.22042V6.2388V6.25717V6.27555L119.923 6.29852V6.3123L119.937 6.33068L119.946 6.34446L119.955 6.35824L119.969 6.37202L119.983 6.38581L119.997 6.395L120.015 6.40418L120.029 6.41337H120.047L120.065 6.42256H120.152L120.175 6.41337L120.189 6.40418L120.203 6.395L120.217 6.38581L120.226 6.37202L120.239 6.35824L120.249 6.34446L120.262 6.33068V6.3123L120.276 6.29852V6.27555L120.285 6.25717V6.20205L120.276 6.18367V6.1653L120.262 6.15151L120.249 6.13314L120.239 6.12395L120.226 6.11017L120.217 6.09638L120.203 6.0826H120.189L120.175 6.06423H120.152L120.134 6.05963H120.125H120.152H120.207L120.267 6.07801L120.322 6.09179L120.363 6.10098L120.377 6.12395L120.386 6.1607L120.395 6.19745V6.2388V6.27096V6.29852L120.382 6.33068L120.372 6.35365L120.359 6.38121L120.345 6.40878L120.327 6.43175L120.308 6.45472L120.285 6.47769L120.267 6.49606L120.239 6.50985L120.212 6.52363L120.185 6.53281L120.157 6.542H120.093H120.061H120.033L120.006 6.53281L119.978 6.52363L119.955 6.50985L119.932 6.49606L119.91 6.47769L119.887 6.45472L119.868 6.43175L119.85 6.40878L119.832 6.38121L119.823 6.35365L119.813 6.33068L119.804 6.29852L119.795 6.27096V6.19745L119.804 6.17908V6.1607L119.818 6.13773V6.11935L119.832 6.09638L119.836 6.0872L119.9 6.07801L119.914 6.06882ZM119.836 6.51444L119.781 6.50525L119.722 6.48687L119.662 6.4639L119.603 6.44093L119.543 6.41337L119.479 6.38121L119.419 6.34905L119.479 6.28933L119.543 6.2388L119.607 6.19286L119.671 6.15151L119.735 6.11935H119.749L119.745 6.12854V6.1607L119.735 6.19286V6.29393L119.745 6.3169L119.754 6.35824L119.772 6.39959L119.795 6.43634L119.818 6.4685L119.845 6.49606L119.859 6.50985H119.841L119.836 6.51444ZM120.844 6.36743L120.798 6.395L120.739 6.41337L120.67 6.44553L120.597 6.4685L120.51 6.49147L120.464 6.50525H120.418L120.372 6.52363H120.336L120.363 6.50985L120.395 6.47769L120.423 6.44093L120.446 6.40418L120.464 6.36284L120.478 6.32149V6.30311L120.487 6.28015V6.22961V6.20205V6.16989L120.482 6.14692V6.12854L120.491 6.13314L120.542 6.15151L120.588 6.17448L120.666 6.21583L120.744 6.25717L120.84 6.32608L120.876 6.34905L120.84 6.37202L120.844 6.36743Z" fill="black"/>
<path d="M115.841 34.9375L115.722 35.8425C115.809 35.8057 117.005 35.8333 117.431 35.8884C117.857 35.9481 118.494 36.1778 119.474 35.9573C120.45 35.7368 121.619 35.8425 121.619 35.8425L121.463 34.8823C121.463 34.8823 118.874 35.9849 115.841 34.9329" fill="#83B7E4"/>
<path d="M117.981 38.6034V38.7136C118.045 38.7228 118.466 38.7734 119.158 38.2496C119.154 38.2175 119.14 38.1853 119.126 38.1532C119.14 38.1761 119.145 38.2037 119.154 38.2267V38.2359C119.814 37.9281 120.203 37.4089 120.35 37.1838C120.528 37.1701 120.835 37.1471 120.973 37.1425C120.528 37.8224 119.369 38.3323 119.177 38.4242V38.6218C120.895 38.1486 121.816 37.1746 121.816 37.1746L121.706 36.481C121.706 36.481 120.707 36.4258 119.891 36.6234C119.076 36.8163 118.214 36.8301 117.733 36.7015C117.252 36.5728 115.589 36.5636 115.589 36.5636L115.479 37.1838C115.479 37.1838 116.304 38.1302 117.976 38.608L117.981 38.6034ZM116.107 37.1976C116.253 37.1976 116.721 37.1976 116.872 37.2068C117.028 37.4365 117.399 37.9143 118.008 38.2129C117.99 38.2726 117.981 38.3277 117.981 38.3921V38.4012C117.779 38.3048 116.551 37.8454 116.107 37.1976V37.1976ZM119.855 37.2436C119.589 37.6294 119.2 37.9418 119.067 38.0429C119.071 38.0475 119.076 38.0567 119.08 38.0613C118.97 37.8959 118.787 37.7856 118.581 37.7856C118.389 37.7856 118.219 37.8775 118.114 38.0153C117.958 37.8959 117.614 37.6065 117.367 37.2573C118.576 37.4365 118.952 37.3814 119.855 37.2436ZM119.131 38.1486C119.117 38.1256 119.103 38.0934 119.09 38.0705C119.108 38.0934 119.122 38.121 119.131 38.1486Z" fill="#83B7E4"/>
<path d="M123.649 41.6492L123.859 40.9233C121.234 40.7993 119.433 39.1592 119.181 38.9111V39.0398C119.181 39.0811 119.177 39.1179 119.167 39.1592C119.177 39.1225 119.181 39.0811 119.181 39.0398V38.98C119.112 39.0122 118.498 39.2649 117.994 39.0949C117.994 39.0949 117.994 39.0857 117.994 39.0765C117.738 39.3246 116.125 40.7901 113.522 40.9187L113.761 41.7548C113.761 41.7548 116.492 41.2679 118.1 39.3935C118.155 39.4716 118.228 39.5405 118.315 39.5819C116.262 41.9294 113.921 42.3107 113.921 42.3107L114.118 42.9998C114.118 42.9998 116.111 42.9217 118.59 39.6462C118.654 39.6462 118.714 39.6324 118.773 39.614C121.261 42.9171 123.268 42.9952 123.268 42.9952L123.447 42.3658C123.447 42.3658 120.881 41.8513 118.998 39.4716C119.039 39.4303 119.076 39.3843 119.108 39.3292C119.108 39.3338 119.103 39.3384 119.099 39.3476C120.698 41.3046 123.658 41.64 123.658 41.64L123.649 41.6492ZM119.163 39.1684C119.154 39.2189 119.135 39.2695 119.112 39.3108C119.135 39.2649 119.149 39.2189 119.163 39.1684Z" fill="#83B7E4"/>
<path fill-rule="evenodd" clip-rule="evenodd" d="M118.93 18.1648L118.288 18.2337V18.2383V18.2429L118.32 24.5596L119.017 24.6469L118.93 18.1648Z" fill="#9E724F"/>
<path fill-rule="evenodd" clip-rule="evenodd" d="M123.315 17.2C123.063 16.5247 122.499 16.0378 121.427 15.8632C120.891 15.7713 120.3 15.7989 119.819 15.8999C120.043 15.8081 120.25 15.7529 120.414 15.7345H120.424C120.437 15.73 120.447 15.7162 120.447 15.7024C120.447 15.6978 120.447 15.6932 120.442 15.684C120.442 15.684 120.433 15.6794 120.433 15.6748C120.424 15.661 120.41 15.6519 120.401 15.6381C120.327 15.5738 120.231 15.5186 120.126 15.4865C120.291 15.4405 120.447 15.4222 120.593 15.4222C120.616 15.4222 120.634 15.4222 120.653 15.4222C120.763 15.4222 120.868 15.4405 120.964 15.4681C120.964 15.4681 120.973 15.4681 120.983 15.4727C121.001 15.4727 121.015 15.4543 121.015 15.4359C121.015 15.4359 121.01 15.4222 121.006 15.4176C120.978 15.3578 120.946 15.3027 120.9 15.2476C120.905 15.243 120.909 15.2384 120.914 15.2384C121.088 15.2476 121.258 15.2889 121.413 15.3578C121.413 15.3578 121.423 15.3578 121.423 15.367H121.427C121.45 15.367 121.464 15.3487 121.464 15.3349V15.3257C121.464 15.3257 121.459 15.3165 121.459 15.3119C121.45 15.2935 121.445 15.2751 121.432 15.2568C121.386 15.1741 121.335 15.1006 121.276 15.0409C121.523 14.926 121.752 14.8525 121.963 14.8249C121.968 14.8249 121.972 14.8249 121.977 14.8249C121.991 14.8157 122 14.8066 122 14.7882C122 14.779 122 14.7744 121.991 14.7652C121.986 14.7652 121.981 14.756 121.977 14.756C121.496 14.4528 120.909 14.4253 120.153 14.8295C119.828 14.9995 119.512 15.2476 119.269 15.5003C119.246 15.4681 119.219 15.4359 119.191 15.4038C119.269 15.266 119.342 15.1511 119.425 15.0684C119.425 15.0684 119.425 15.0684 119.429 15.0592C119.434 15.05 119.434 15.0454 119.434 15.0409C119.434 15.0271 119.425 15.0133 119.406 15.0087C119.406 15.0087 119.397 15.0087 119.393 15.0087C119.379 15.0087 119.37 15.0087 119.361 15.0087C119.274 15.0087 119.182 15.0271 119.09 15.0684C119.173 14.9444 119.264 14.8387 119.361 14.7468C119.374 14.7376 119.388 14.7193 119.397 14.7147C119.471 14.655 119.544 14.6044 119.626 14.5631C119.626 14.5631 119.631 14.5631 119.636 14.5585C119.645 14.5539 119.649 14.5447 119.649 14.5309C119.649 14.5171 119.645 14.508 119.636 14.5034C119.636 14.5034 119.626 14.5034 119.622 14.5034C119.576 14.4804 119.521 14.462 119.461 14.4528C119.461 14.4528 119.461 14.439 119.466 14.439C119.585 14.3472 119.718 14.2783 119.855 14.2277H119.865C119.874 14.2231 119.883 14.2139 119.883 14.1956C119.883 14.1818 119.878 14.1726 119.869 14.1634C119.869 14.1634 119.86 14.1634 119.855 14.1588C119.842 14.1588 119.828 14.1496 119.819 14.145C119.746 14.1175 119.663 14.0991 119.59 14.0899C119.686 13.874 119.796 13.6994 119.915 13.557C119.915 13.557 119.92 13.5478 119.924 13.5478C119.924 13.5386 119.924 13.534 119.924 13.5294C119.924 13.5156 119.91 13.4973 119.888 13.4973C119.888 13.4973 119.878 13.4973 119.874 13.4973C119.388 13.5846 118.985 13.9061 118.719 14.609C118.655 14.7744 118.609 14.9536 118.573 15.1281C118.554 15.1281 118.536 15.1281 118.518 15.1281C118.485 14.9536 118.435 14.7744 118.371 14.6044C118.105 13.9015 117.702 13.58 117.216 13.4927C117.212 13.4927 117.212 13.4927 117.203 13.4927C117.184 13.4927 117.17 13.5111 117.17 13.5248C117.17 13.534 117.17 13.534 117.17 13.5432C117.17 13.5432 117.17 13.5478 117.18 13.5524C117.299 13.6948 117.409 13.8694 117.5 14.0853C117.427 14.0945 117.349 14.1083 117.271 14.1404C117.257 14.145 117.248 14.1496 117.235 14.1542C117.225 14.1542 117.225 14.1542 117.221 14.1588C117.212 14.168 117.207 14.1772 117.207 14.191C117.207 14.2047 117.216 14.2139 117.225 14.2231C117.367 14.2737 117.5 14.338 117.619 14.4344C117.619 14.4344 117.619 14.4436 117.619 14.4482C117.56 14.4574 117.51 14.4758 117.459 14.4942C117.455 14.4942 117.45 14.4988 117.445 14.4988C117.436 14.5034 117.432 14.5125 117.432 14.5263C117.432 14.5355 117.441 14.5447 117.445 14.5539V14.5585C117.528 14.5998 117.606 14.6504 117.674 14.7101C117.688 14.7193 117.702 14.7331 117.716 14.7422C117.812 14.8295 117.904 14.9352 117.986 15.0638C117.894 15.0179 117.803 14.9995 117.716 15.0041C117.707 15.0041 117.693 15.0041 117.684 15.0041C117.684 15.0041 117.679 15.0041 117.67 15.0041C117.656 15.0041 117.647 15.0225 117.647 15.0363C117.647 15.0409 117.647 15.0454 117.647 15.0546C117.647 15.0592 117.647 15.0638 117.656 15.0638C117.743 15.1603 117.835 15.2935 117.917 15.4543C117.894 15.4819 117.876 15.5094 117.853 15.5416C117.606 15.2706 117.276 15.0087 116.928 14.8249C116.172 14.4207 115.59 14.4482 115.104 14.7468C115.104 14.7468 115.099 14.756 115.095 14.756C115.086 14.7606 115.086 14.7698 115.086 14.779C115.086 14.7974 115.095 14.8066 115.109 14.8157H115.118C115.333 14.8433 115.558 14.9122 115.81 15.0317C115.75 15.0914 115.695 15.1649 115.654 15.2476C115.64 15.266 115.635 15.2843 115.626 15.3027C115.626 15.3027 115.622 15.3119 115.617 15.3165V15.3257C115.617 15.3257 115.631 15.3578 115.649 15.3578C115.649 15.3578 115.649 15.3578 115.658 15.3578C115.658 15.3578 115.668 15.3578 115.672 15.3487C115.828 15.2843 115.988 15.243 116.167 15.2292C116.172 15.2292 116.181 15.2338 116.185 15.2384C116.139 15.2935 116.103 15.3487 116.085 15.4084C116.08 15.413 116.08 15.4176 116.075 15.4222C116.075 15.4451 116.094 15.4635 116.107 15.4635H116.117C116.117 15.4635 116.121 15.4635 116.126 15.4635C116.227 15.4359 116.332 15.4222 116.442 15.4176C116.46 15.4176 116.479 15.4176 116.497 15.4176C116.648 15.4176 116.799 15.4405 116.969 15.4819C116.859 15.514 116.767 15.5692 116.694 15.6335C116.685 15.6473 116.671 15.6565 116.657 15.6702C116.657 15.6702 116.653 15.6702 116.648 15.6794C116.648 15.6886 116.648 15.6932 116.648 15.6978C116.648 15.7162 116.657 15.7254 116.671 15.73C116.676 15.73 116.676 15.73 116.676 15.73H116.685C116.845 15.7483 117.056 15.8035 117.28 15.8953C116.799 15.7943 116.213 15.7667 115.672 15.8586C114.6 16.0332 114.036 16.5201 113.784 17.1954C113.784 17.2046 113.78 17.2046 113.78 17.2092C113.78 17.2322 113.798 17.2506 113.812 17.2506C113.816 17.2506 113.821 17.2506 113.826 17.2506C113.83 17.2506 113.83 17.2506 113.835 17.246C114.078 17.1082 114.362 16.9933 114.71 16.9198C114.696 17.0255 114.696 17.1403 114.719 17.2552C114.719 17.2873 114.728 17.3195 114.742 17.3562C114.742 17.3608 114.742 17.3654 114.742 17.37C114.747 17.3838 114.76 17.3884 114.774 17.3884C114.783 17.3884 114.792 17.3884 114.802 17.3746C114.802 17.3746 114.802 17.3654 114.802 17.3608C114.907 17.1679 115.044 16.9933 115.219 16.8463C115.228 16.8463 115.237 16.8463 115.241 16.8463C115.241 16.9428 115.246 17.0347 115.269 17.1173C115.269 17.1173 115.269 17.1265 115.269 17.1311C115.274 17.1449 115.287 17.1495 115.296 17.1495C115.306 17.1495 115.315 17.1403 115.319 17.1403C115.319 17.1403 115.319 17.1357 115.324 17.1311C115.411 17.0255 115.503 16.9244 115.617 16.8325C115.631 16.8187 115.654 16.8004 115.672 16.7912C115.819 16.6763 115.993 16.5753 116.194 16.5017C116.112 16.6166 116.052 16.736 116.03 16.8555C116.03 16.883 116.02 16.9106 116.02 16.9336V16.952C116.02 16.952 116.039 16.9795 116.052 16.9795C116.052 16.9795 116.066 16.9795 116.071 16.9795C116.071 16.9795 116.075 16.9795 116.08 16.9749C116.249 16.8693 116.497 16.7682 116.795 16.6809C116.359 16.8876 115.906 17.1954 115.535 17.5538C114.682 18.3807 114.476 19.1709 114.673 19.9335C114.673 19.9381 114.673 19.9472 114.678 19.9472C114.682 19.961 114.696 19.9656 114.71 19.9656C114.724 19.9656 114.733 19.961 114.737 19.9472C114.737 19.9472 114.737 19.9472 114.742 19.9381C114.866 19.6624 115.058 19.3776 115.328 19.0928C115.383 19.1984 115.452 19.2995 115.544 19.3914C115.571 19.4189 115.599 19.4465 115.626 19.4695C115.626 19.4741 115.631 19.4787 115.64 19.4833H115.649C115.677 19.4833 115.69 19.4695 115.69 19.4511V19.4419C115.663 19.203 115.677 18.9549 115.745 18.7115C115.75 18.7023 115.759 18.6977 115.764 18.6931C115.819 18.7804 115.887 18.8585 115.961 18.9228C115.961 18.9274 115.97 18.932 115.979 18.9366H115.993C115.993 18.9366 116.02 18.9274 116.025 18.9136C116.025 18.909 116.025 18.9044 116.025 18.9044C116.025 18.9044 116.025 18.9044 116.025 18.8998C116.034 18.7482 116.057 18.6012 116.098 18.445C116.112 18.422 116.117 18.3945 116.126 18.3715C116.194 18.1786 116.286 17.981 116.414 17.7835C116.41 17.9397 116.437 18.0821 116.488 18.2061C116.501 18.2337 116.515 18.2612 116.534 18.2888C116.534 18.2934 116.538 18.298 116.543 18.298C116.547 18.3072 116.556 18.3072 116.566 18.3072C116.579 18.3072 116.589 18.3026 116.598 18.2934V18.2796C116.735 17.9626 117.042 17.54 117.468 17.1357C117.542 17.0622 117.619 16.9933 117.693 16.929C117.757 17.1127 117.849 17.2735 117.963 17.393C117.954 17.4527 117.945 17.517 117.945 17.5813C117.945 17.8524 118.05 18.0913 118.211 18.2383V18.2475H118.861C119.031 18.1051 119.145 17.857 119.145 17.5767C119.145 17.5124 119.141 17.4573 119.127 17.3976C119.237 17.2873 119.324 17.1403 119.388 16.9749C119.443 17.0255 119.498 17.0806 119.553 17.1311C119.975 17.54 120.286 17.958 120.419 18.275C120.419 18.2842 120.419 18.2842 120.424 18.2888C120.433 18.298 120.437 18.3026 120.451 18.3026C120.46 18.3026 120.469 18.3026 120.474 18.2934C120.474 18.2934 120.479 18.2934 120.483 18.2842C120.502 18.2567 120.515 18.2291 120.529 18.2015C120.584 18.0821 120.611 17.9351 120.607 17.7789C120.735 17.9718 120.827 18.1694 120.896 18.3669C120.905 18.3899 120.909 18.4128 120.918 18.4404C120.964 18.5966 120.987 18.7436 120.996 18.8906C120.996 18.8998 120.996 18.9044 120.996 18.9136C121.001 18.9228 121.01 18.9366 121.028 18.9366C121.028 18.9366 121.042 18.9366 121.047 18.9366C121.047 18.9366 121.051 18.9366 121.056 18.9274C121.129 18.8677 121.198 18.7896 121.258 18.6977C121.262 18.6977 121.271 18.7069 121.276 18.7161C121.34 18.9595 121.358 19.203 121.331 19.4465V19.4557C121.331 19.4557 121.349 19.4878 121.363 19.4878C121.363 19.4878 121.377 19.4878 121.381 19.4833C121.386 19.4833 121.39 19.4833 121.395 19.4741C121.423 19.4511 121.455 19.4235 121.482 19.396C121.569 19.3041 121.642 19.203 121.693 19.0974C121.963 19.3822 122.151 19.667 122.279 19.9427C122.279 19.9427 122.279 19.9427 122.279 19.9518C122.288 19.961 122.298 19.9702 122.307 19.9702C122.321 19.9702 122.334 19.961 122.339 19.9472V19.9381C122.536 19.1709 122.334 18.3807 121.477 17.5538C121.111 17.2 120.657 16.8922 120.222 16.6809C120.52 16.7636 120.767 16.8647 120.932 16.9749C120.937 16.9749 120.937 16.9795 120.946 16.9795C120.946 16.9795 120.955 16.9841 120.96 16.9841C120.978 16.9841 120.992 16.9703 120.996 16.952C120.996 16.952 120.996 16.9428 120.996 16.9336C120.996 16.9106 120.992 16.883 120.987 16.8555C120.969 16.736 120.909 16.612 120.827 16.5017C121.028 16.5798 121.203 16.6763 121.349 16.7912C121.368 16.8004 121.39 16.8187 121.404 16.8325C121.514 16.9244 121.61 17.0255 121.693 17.1311C121.693 17.1357 121.693 17.1403 121.702 17.1449C121.711 17.1449 121.716 17.1541 121.725 17.1541C121.739 17.1541 121.748 17.1449 121.752 17.1357C121.752 17.1311 121.752 17.1219 121.757 17.1219C121.78 17.0392 121.789 16.9474 121.789 16.8509C121.798 16.8509 121.803 16.8509 121.812 16.8509C121.991 16.9979 122.124 17.1725 122.234 17.3654C122.234 17.3654 122.234 17.3746 122.238 17.3838C122.243 17.3884 122.252 17.393 122.261 17.393C122.275 17.393 122.288 17.3884 122.293 17.37C122.293 17.37 122.293 17.37 122.293 17.3608C122.302 17.3287 122.307 17.2919 122.316 17.2598C122.334 17.1449 122.334 17.0301 122.325 16.9244C122.673 16.9979 122.962 17.1127 123.2 17.2552C123.2 17.2552 123.209 17.2552 123.214 17.2552C123.232 17.2552 123.251 17.2368 123.251 17.2184C123.251 17.2184 123.246 17.2092 123.242 17.2H123.315Z" fill="#3DA949"/>
<path d="M123.965 25.028C123.736 24.6146 123.14 24.6743 122.627 24.9086L122.206 24.2287C122.206 24.2287 122.682 23.953 123.003 24.1414C123.324 24.3297 123.759 24.4951 123.8 24.0357C123.846 23.5763 123.273 23.1904 122.421 23.5809C121.454 24.0311 120.089 24.9315 120.089 24.9315C120.089 24.9315 119.328 24.3205 117.422 24.6559C115.511 24.9913 115.461 24.6513 115.461 24.6513C115.461 24.6513 115.456 23.8611 114.838 23.8887C114.224 23.9117 114.375 24.7799 114.815 25.1015C115.136 25.3358 115.342 25.4093 116.235 25.3864C116.945 25.3634 118.196 25.4323 118.934 25.8274L116.625 25.8044C116.625 25.8044 116.437 25.7906 116.51 26.0387C116.584 26.2868 117.133 27.5455 117.775 27.8809C118.073 27.8809 119.044 27.9131 119.044 27.9131C119.044 27.9131 119.351 27.8212 119.53 27.7247C119.828 27.5869 120.254 27.1183 120.414 26.691C120.602 26.5027 123.044 25.0694 123.2 25.4736C123.356 25.7814 123.484 25.7401 123.672 25.7079C123.86 25.6758 124.125 25.4553 123.96 25.0372L123.965 25.028ZM120.671 25.8917C120.671 25.8917 120.538 25.3818 120.464 25.2715L121.981 24.3527C121.981 24.3527 122.375 24.881 122.348 24.9499L120.675 25.8871L120.671 25.8917Z" fill="#7B573A"/>
<path d="M126.686 27.7019L126.59 27.6513C123.772 26.3512 120.395 26.7325 120.395 26.7325C120.395 26.7325 120.061 27.6376 118.975 27.8994L118.082 27.8764C118.082 27.8764 118.265 27.9178 118.485 27.9683C118.466 27.9683 118.448 27.9683 118.43 27.9683C120.597 28.5242 123.488 31.3082 124.18 31.9973C124.253 31.9192 124.322 31.8411 124.391 31.763C123.465 30.4445 119.566 27.8581 119.566 27.8581C121.55 28.2761 124.18 30.8304 124.721 31.3725C124.826 31.2393 124.932 31.1014 125.032 30.9636C123.924 29.7508 120.125 27.4308 120.125 27.4308C122.146 27.9683 124.583 30.0907 125.229 30.6742C125.312 30.5547 125.39 30.4307 125.468 30.3067C124.313 28.9101 120.414 26.9439 120.414 26.9439C122.719 27.4951 125.087 29.4017 125.697 29.9162C125.766 29.7921 125.839 29.6635 125.903 29.5395C125.051 28.7677 121.445 26.8244 121.445 26.8244C122.563 26.953 125.674 28.8871 126.1 29.1582C126.141 29.0663 126.182 28.9698 126.224 28.8779C125.788 28.3726 122.929 26.999 122.929 26.999C124.286 27.1598 126.027 28.3634 126.347 28.5931C126.389 28.5012 126.425 28.4093 126.462 28.3129C126.05 27.9408 124.652 27.3068 124.652 27.3068C125.399 27.3711 126.228 27.8764 126.549 28.0832C126.595 27.9591 126.641 27.8305 126.682 27.7019H126.686Z" fill="#ADCE78"/>
</svg>
